<svg width="45" height="45" viewBox="0 0 45 45" fill="none" xmlns="http://www.w3.org/2000/svg">
<path d="M31.4953 9.67859L34.7403 13.1251C35.1029 13.5102 35.1029 14.111 34.7403 14.4961L22.981 26.9857C22.792 27.1864 22.5286 27.3002 22.2529 27.3002H19.0664C18.5141 27.3002 18.0664 26.8525 18.0664 26.3002V22.7916C18.0664 22.5368 18.1637 22.2916 18.3384 22.1061L30.0392 9.67859C30.434 9.25926 31.1005 9.25926 31.4953 9.67859Z" stroke="white" stroke-width="3"/>
<path d="M35.1277 4.78415L33.7401 6.27197C33.3818 6.6561 33.3818 7.25192 33.7401 7.63605L36.1608 10.2316C36.5562 10.6556 37.228 10.6556 37.6234 10.2316L39.011 8.74381C39.3692 8.35968 39.3692 7.76386 39.011 7.37973L36.5903 4.78415C36.1949 4.3602 35.523 4.3602 35.1277 4.78415Z" stroke="white" stroke-width="3"/>
<path d="M24.3515 9.51613H14C10.134 9.51613 7 12.6501 7 16.5161V32.4255C7 36.2915 10.134 39.4255 14 39.4255H28.2385C32.1045 39.4255 35.2385 36.2915 35.2385 32.4255V19.4074C35.2385 19.302 35.1531 19.2166 35.0477 19.2166C34.9423 19.2166 34.8569 19.302 34.8569 19.4074V32.0214C34.8569 35.8874 31.7229 39.0214 27.8569 39.0214H14.3816C10.5156 39.0214 7.3816 35.8874 7.3816 32.0214V16.9204C7.3816 13.0544 10.5156 9.92041 14.3816 9.92041H24.3515C24.4632 9.92041 24.5537 9.82991 24.5537 9.71827C24.5537 9.60664 24.4632 9.51613 24.3515 9.51613Z" stroke="white" stroke-width="3"/>
</svg>
