<svg width="115" height="90" viewBox="0 0 115 90" fill="none" xmlns="http://www.w3.org/2000/svg">
<path d="M43.2117 56.3541L72.6625 72.0664C81.0714 76.5526 91.2062 70.3552 91.0446 60.8258L90.495 28.4119C90.3334 18.8824 79.9944 13.0323 71.7424 17.801L42.8412 34.5027C34.3498 39.4098 34.5589 51.7377 43.2117 56.3541Z" fill="white" stroke="black"/>
<path d="M24.2117 56.3541L53.6625 72.0664C62.0714 76.5526 72.2062 70.3552 72.0446 60.8258L71.495 28.4119C71.3334 18.8824 60.9944 13.0323 52.7424 17.801L23.8412 34.5027C15.3498 39.4098 15.5589 51.7377 24.2117 56.3541Z" fill="white" stroke="black"/>
<path d="M36.3428 41.62C36.3428 42.0867 36.0395 42.46 35.4328 42.74C34.8728 43.02 34.4528 43.16 34.1728 43.16C33.9861 43.16 33.7061 43.09 33.3328 42.95C33.0061 42.7633 32.7961 42.5533 32.7028 42.32C32.1895 40.5 31.7695 38.82 31.4428 37.28C31.1628 35.74 30.9061 34.2467 30.6728 32.8C30.4861 31.3533 30.2995 29.8833 30.1128 28.39C29.9728 26.8967 29.7861 25.2633 29.5528 23.49C29.1795 23.63 28.6895 23.91 28.0828 24.33C27.4761 24.7033 26.8695 25.1 26.2628 25.52C25.6561 25.8933 25.1195 26.2433 24.6528 26.57C24.2328 26.8967 23.9761 27.06 23.8828 27.06C23.7428 27.06 23.6028 26.8733 23.4628 26.5C23.3695 26.1267 23.3228 25.87 23.3228 25.73C23.3228 25.6367 23.3461 25.4967 23.3928 25.31C23.4861 25.0767 23.5795 24.89 23.6728 24.75C23.7661 24.61 24.1395 24.26 24.7928 23.7C25.4928 23.0933 26.2161 22.44 26.9628 21.74C27.7561 20.9933 28.4561 20.27 29.0628 19.57C29.6695 18.8233 29.9728 18.24 29.9728 17.82C29.9728 17.4467 30.1128 17.2133 30.3928 17.12C30.6728 17.0267 30.8595 16.98 30.9528 16.98C31.3261 16.98 31.6295 17.12 31.8628 17.4C32.0961 17.68 32.2828 18.03 32.4228 18.45C32.5628 18.87 32.6561 19.3133 32.7028 19.78C32.7961 20.2 32.8428 20.55 32.8428 20.83C32.8428 23.2567 32.9361 25.31 33.1228 26.99C33.3561 28.6233 33.6128 30.1867 33.8928 31.68C34.0795 33.3133 34.3128 34.7133 34.5928 35.88C34.8728 37 35.1295 37.9567 35.3628 38.75C35.6428 39.4967 35.8761 40.1033 36.0628 40.57C36.2495 41.0367 36.3428 41.3867 36.3428 41.62Z" fill="white"/>
<path d="M35.4328 42.74L35.0138 41.832L34.9996 41.8386L34.9856 41.8456L35.4328 42.74ZM33.3328 42.95L32.8367 43.8182L32.9064 43.8581L32.9817 43.8863L33.3328 42.95ZM32.7028 42.32L31.7404 42.5915L31.7547 42.6423L31.7743 42.6914L32.7028 42.32ZM31.4428 37.28L30.4589 37.4589L30.4616 37.4732L30.4646 37.4875L31.4428 37.28ZM30.6728 32.8L29.681 32.928L29.6831 32.9436L29.6856 32.9592L30.6728 32.8ZM30.1128 28.39L29.1172 28.4833L29.1186 28.4987L29.1205 28.514L30.1128 28.39ZM29.5528 23.49L30.5443 23.3595L30.3801 22.1118L29.2017 22.5537L29.5528 23.49ZM28.0828 24.33L28.6069 25.1817L28.6299 25.1675L28.652 25.1522L28.0828 24.33ZM26.2628 25.52L26.7869 26.3717L26.8099 26.3575L26.832 26.3422L26.2628 25.52ZM24.6528 26.57L24.0794 25.7508L24.0587 25.7652L24.0389 25.7806L24.6528 26.57ZM23.4628 26.5L22.4927 26.7425L22.5065 26.7978L22.5265 26.8511L23.4628 26.5ZM23.3928 25.31L22.4643 24.9386L22.4391 25.0016L22.4227 25.0675L23.3928 25.31ZM23.6728 24.75L24.5049 25.3047L24.5049 25.3047L23.6728 24.75ZM24.7928 23.7L25.4436 24.4593L25.4477 24.4557L24.7928 23.7ZM26.9628 21.74L27.6468 22.4695L27.6482 22.4682L26.9628 21.74ZM29.0628 19.57L29.8185 20.2249L29.8289 20.2129L29.8389 20.2006L29.0628 19.57ZM30.3928 17.12L30.709 18.0687L30.709 18.0687L30.3928 17.12ZM31.8628 17.4L32.631 16.7598L32.631 16.7598L31.8628 17.4ZM32.4228 18.45L31.4741 18.7662L31.4741 18.7662L32.4228 18.45ZM32.7028 19.78L31.7078 19.8795L31.7137 19.9388L31.7266 19.9969L32.7028 19.78ZM33.1228 26.99L32.1289 27.1004L32.1307 27.116L32.1329 27.1314L33.1228 26.99ZM33.8928 31.68L34.8863 31.5665L34.8823 31.5309L34.8757 31.4957L33.8928 31.68ZM34.5928 35.88L33.6204 36.1134L33.6227 36.1225L34.5928 35.88ZM35.3628 38.75L34.4034 39.0322L34.4137 39.0671L34.4265 39.1011L35.3628 38.75ZM36.0628 40.57L35.1343 40.9414L35.1343 40.9414L36.0628 40.57ZM35.3428 41.62C35.3428 41.6261 35.3422 41.6216 35.3454 41.6129C35.3484 41.6045 35.3498 41.6064 35.3392 41.6194C35.3138 41.6507 35.2292 41.7326 35.0138 41.832L35.8519 43.648C36.6361 43.286 37.3428 42.6396 37.3428 41.62H35.3428ZM34.9856 41.8456C34.7321 41.9723 34.5326 42.056 34.3816 42.1063C34.2215 42.1597 34.1616 42.16 34.1728 42.16V44.16C34.7076 44.16 35.3122 43.9183 35.88 43.6344L34.9856 41.8456ZM34.1728 42.16C34.1929 42.16 34.1641 42.1621 34.0653 42.1374C33.973 42.1143 33.8474 42.075 33.6839 42.0137L32.9817 43.8863C33.3691 44.0316 33.7935 44.16 34.1728 44.16V42.16ZM33.829 42.0818C33.7233 42.0214 33.6655 41.9734 33.6374 41.9454C33.611 41.919 33.6194 41.9188 33.6313 41.9486L31.7743 42.6914C31.9843 43.2162 32.4073 43.5729 32.8367 43.8182L33.829 42.0818ZM33.6653 42.0485C33.1568 40.2456 32.7424 38.5873 32.421 37.0725L30.4646 37.4875C30.7966 39.0527 31.2222 40.7544 31.7404 42.5915L33.6653 42.0485ZM32.4267 37.1011C32.1478 35.5672 31.8923 34.0804 31.6601 32.6408L29.6856 32.9592C29.92 34.4129 30.1778 35.9128 30.4589 37.4589L32.4267 37.1011ZM31.6646 32.672C31.4781 31.2267 31.2916 29.758 31.1051 28.266L29.1205 28.514C29.3074 30.0086 29.4942 31.48 29.681 32.928L31.6646 32.672ZM31.1084 28.2967C30.9671 26.7888 30.7789 25.143 30.5443 23.3595L28.5614 23.6205C28.7934 25.3837 28.9785 27.0045 29.1172 28.4833L31.1084 28.2967ZM29.2017 22.5537C28.7117 22.7374 28.141 23.0734 27.5136 23.5078L28.652 25.1522C29.2379 24.7466 29.6473 24.5226 29.9039 24.4263L29.2017 22.5537ZM27.5587 23.4783C26.9362 23.8614 26.3145 24.2679 25.6936 24.6978L26.832 26.3422C27.4244 25.9321 28.0161 25.5452 28.6069 25.1817L27.5587 23.4783ZM25.7387 24.6683C25.1192 25.0496 24.5655 25.4104 24.0794 25.7508L25.2263 27.3892C25.6734 27.0762 26.1931 26.7371 26.7869 26.3717L25.7387 24.6683ZM24.0389 25.7806C23.8383 25.9366 23.6977 26.037 23.6084 26.0938C23.5626 26.123 23.5493 26.1284 23.5606 26.1232C23.5667 26.1203 23.5928 26.1083 23.6343 26.0957C23.6695 26.0849 23.7596 26.06 23.8828 26.06V28.06C24.1392 28.06 24.3421 27.9655 24.4063 27.9356C24.505 27.8895 24.5997 27.8337 24.6822 27.7812C24.8496 27.6747 25.0473 27.53 25.2668 27.3594L24.0389 25.7806ZM23.8828 26.06C24.0821 26.06 24.2369 26.1292 24.3325 26.1929C24.4205 26.2516 24.4641 26.3084 24.4728 26.32C24.4862 26.3378 24.4558 26.3 24.3991 26.1489L22.5265 26.8511C22.6098 27.0734 22.7194 27.3155 22.8728 27.52C23.0069 27.6988 23.3362 28.06 23.8828 28.06V26.06ZM24.433 26.2575C24.3893 26.083 24.3598 25.9482 24.3417 25.8486C24.3216 25.7381 24.3228 25.7091 24.3228 25.73H22.3228C22.3228 26.0108 22.4025 26.382 22.4927 26.7425L24.433 26.2575ZM24.3228 25.73C24.3228 25.7589 24.3199 25.76 24.3267 25.7194C24.3328 25.683 24.344 25.6284 24.363 25.5525L22.4227 25.0675C22.3725 25.2682 22.3228 25.5075 22.3228 25.73H24.3228ZM24.3213 25.6814C24.4002 25.4841 24.4637 25.3664 24.5049 25.3047L22.8408 24.1953C22.6952 24.4136 22.5721 24.6692 22.4643 24.9386L24.3213 25.6814ZM24.5049 25.3047C24.4782 25.3447 24.4695 25.3477 24.5195 25.2953C24.56 25.2527 24.621 25.1924 24.7068 25.112C24.8778 24.9517 25.1217 24.7351 25.4436 24.4593L24.142 22.9407C23.8105 23.2249 23.5412 23.4633 23.3389 23.653C23.1676 23.8135 22.9623 24.013 22.8408 24.1953L24.5049 25.3047ZM25.4477 24.4557C26.1585 23.8397 26.8916 23.1775 27.6468 22.4695L26.2789 21.0105C25.5407 21.7025 24.8271 22.347 24.1379 22.9443L25.4477 24.4557ZM27.6482 22.4682C28.462 21.7022 29.1862 20.9545 29.8185 20.2249L28.3071 18.9151C27.7261 19.5855 27.0503 20.2844 26.2774 21.0118L27.6482 22.4682ZM29.8389 20.2006C30.1672 19.7965 30.4389 19.4062 30.6325 19.0339C30.8205 18.6724 30.9728 18.2563 30.9728 17.82H28.9728C28.9728 17.8037 28.9735 17.8892 28.8581 18.1111C28.7484 18.3222 28.5651 18.5968 28.2867 18.9394L29.8389 20.2006ZM30.9728 17.82C30.9728 17.7498 30.987 17.7933 30.9353 17.8795C30.9083 17.9246 30.8702 17.9689 30.823 18.0056C30.7768 18.0416 30.7349 18.0601 30.709 18.0687L30.0766 16.1713C29.7308 16.2866 29.4239 16.5112 29.2203 16.8505C29.0286 17.17 28.9728 17.5168 28.9728 17.82H30.9728ZM30.709 18.0687C30.8361 18.0263 30.9262 17.9999 30.9853 17.9851C30.9993 17.9816 31.0101 17.9792 31.018 17.9775C31.0218 17.9767 31.0248 17.9761 31.0268 17.9757C31.0289 17.9753 31.0298 17.9751 31.0297 17.9751C31.0296 17.9752 31.0282 17.9754 31.0256 17.9758C31.023 17.9761 31.0187 17.9766 31.0129 17.9772C31.0024 17.9783 30.9815 17.98 30.9528 17.98V15.98C30.777 15.98 30.6077 16.018 30.5003 16.0449C30.3727 16.0767 30.2295 16.1203 30.0766 16.1713L30.709 18.0687ZM30.9528 17.98C31.0119 17.98 31.0357 17.9904 31.0413 17.993C31.0462 17.9952 31.0642 18.0037 31.0946 18.0402L32.631 16.7598C32.2024 16.2455 31.6146 15.98 30.9528 15.98V17.98ZM31.0946 18.0402C31.233 18.2063 31.3653 18.4398 31.4741 18.7662L33.3715 18.1338C33.2003 17.6202 32.9593 17.1537 32.631 16.7598L31.0946 18.0402ZM31.4741 18.7662C31.5894 19.1119 31.668 19.4822 31.7078 19.8795L33.6979 19.6805C33.6442 19.1444 33.5363 18.6281 33.3715 18.1338L31.4741 18.7662ZM31.7266 19.9969C31.8116 20.3793 31.8428 20.6508 31.8428 20.83H33.8428C33.8428 20.4492 33.7807 20.0207 33.679 19.5631L31.7266 19.9969ZM31.8428 20.83C31.8428 23.2792 31.9369 25.3718 32.1289 27.1004L34.1167 26.8796C33.9354 25.2482 33.8428 23.2342 33.8428 20.83H31.8428ZM32.1329 27.1314C32.3681 28.7779 32.6271 30.3556 32.9099 31.8643L34.8757 31.4957C34.5986 30.0178 34.3442 28.4688 34.1128 26.8486L32.1329 27.1314ZM32.8993 31.7935C33.089 33.4536 33.3282 34.8958 33.6204 36.1134L35.5652 35.6466C35.2974 34.5308 35.07 33.1731 34.8863 31.5665L32.8993 31.7935ZM33.6227 36.1225C33.9048 37.2511 34.1651 38.2217 34.4034 39.0322L36.3222 38.4678C36.0939 37.6916 35.8408 36.7489 35.563 35.6375L33.6227 36.1225ZM34.4265 39.1011C34.7077 39.8511 34.9439 40.4653 35.1343 40.9414L36.9913 40.1986C36.8084 39.7414 36.5779 39.1422 36.2991 38.3989L34.4265 39.1011ZM35.1343 40.9414C35.218 41.1507 35.2733 41.3153 35.3066 41.4402C35.3417 41.5719 35.3428 41.6243 35.3428 41.62H37.3428C37.3428 41.1814 37.1833 40.6786 36.9913 40.1986L35.1343 40.9414Z" fill="black"/>
</svg>
