<svg width="115" height="90" viewBox="0 0 115 90" fill="none" xmlns="http://www.w3.org/2000/svg">
<path d="M42.8412 34.5027C34.3498 39.4098 34.5589 51.7377 43.2117 56.3541L72.6625 72.0664C81.0714 76.5526 91.2062 70.3552 91.0446 60.8258L90.495 28.4119C90.3334 18.8824 79.9944 13.0323 71.7424 17.801L42.8412 34.5027Z" fill="white" stroke="black"/>
<path d="M23.8412 34.5027C15.3498 39.4098 15.5589 51.7377 24.2117 56.3541L53.6625 72.0664C62.0714 76.5526 72.2062 70.3552 72.0446 60.8258L71.495 28.4119C71.3334 18.8824 60.9944 13.0323 52.7424 17.801L23.8412 34.5027Z" fill="white" stroke="black"/>
<path d="M36.3428 41.62C36.3428 42.0867 36.0395 42.46 35.4328 42.74C34.8728 43.02 34.4528 43.16 34.1728 43.16C33.9861 43.16 33.7061 43.09 33.3328 42.95C33.0061 42.7633 32.7961 42.5533 32.7028 42.32C32.1895 40.5 31.7695 38.82 31.4428 37.28C31.1628 35.74 30.9061 34.2467 30.6728 32.8C30.4861 31.3533 30.2995 29.8833 30.1128 28.39C29.9728 26.8967 29.7861 25.2633 29.5528 23.49C29.1795 23.63 28.6895 23.91 28.0828 24.33C27.4761 24.7033 26.8695 25.1 26.2628 25.52C25.6561 25.8933 25.1195 26.2433 24.6528 26.57C24.2328 26.8967 23.9761 27.06 23.8828 27.06C23.7428 27.06 23.6028 26.8733 23.4628 26.5C23.3695 26.1267 23.3228 25.87 23.3228 25.73C23.3228 25.6367 23.3461 25.4967 23.3928 25.31C23.4861 25.0767 23.5795 24.89 23.6728 24.75C23.7661 24.61 24.1395 24.26 24.7928 23.7C25.4928 23.0933 26.2161 22.44 26.9628 21.74C27.7561 20.9933 28.4561 20.27 29.0628 19.57C29.6695 18.8233 29.9728 18.24 29.9728 17.82C29.9728 17.4467 30.1128 17.2133 30.3928 17.12C30.6728 17.0267 30.8595 16.98 30.9528 16.98C31.3261 16.98 31.6295 17.12 31.8628 17.4C32.0961 17.68 32.2828 18.03 32.4228 18.45C32.5628 18.87 32.6561 19.3133 32.7028 19.78C32.7961 20.2 32.8428 20.55 32.8428 20.83C32.8428 23.2567 32.9361 25.31 33.1228 26.99C33.3561 28.6233 33.6128 30.1867 33.8928 31.68C34.0795 33.3133 34.3128 34.7133 34.5928 35.88C34.8728 37 35.1295 37.9567 35.3628 38.75C35.6428 39.4967 35.8761 40.1033 36.0628 40.57C36.2495 41.0367 36.3428 41.3867 36.3428 41.62Z" fill="white"/>
<path d="M35.4328 42.74L35.0976 42.0136L35.0862 42.0189L35.075 42.0245L35.4328 42.74ZM33.3328 42.95L32.9359 43.6446L32.9917 43.6765L33.0519 43.6991L33.3328 42.95ZM32.7028 42.32L31.9329 42.5372L31.9443 42.5779L31.96 42.6171L32.7028 42.32ZM31.4428 37.28L30.6557 37.4231L30.6578 37.4346L30.6602 37.446L31.4428 37.28ZM30.6728 32.8L29.8794 32.9024L29.881 32.9149L29.883 32.9274L30.6728 32.8ZM30.1128 28.39L29.3163 28.4647L29.3175 28.477L29.319 28.4892L30.1128 28.39ZM29.5528 23.49L30.346 23.3856L30.2146 22.3874L29.2719 22.7409L29.5528 23.49ZM28.0828 24.33L28.5021 25.0113L28.5205 25L28.5382 24.9878L28.0828 24.33ZM26.2628 25.52L26.6821 26.2013L26.7005 26.19L26.7182 26.1778L26.2628 25.52ZM24.6528 26.57L24.194 25.9146L24.1776 25.9262L24.1617 25.9385L24.6528 26.57ZM23.4628 26.5L22.6867 26.694L22.6978 26.7382L22.7137 26.7809L23.4628 26.5ZM23.3928 25.31L22.65 25.0129L22.6299 25.0633L22.6167 25.116L23.3928 25.31ZM23.6728 24.75L24.3385 25.1938L24.3385 25.1938L23.6728 24.75ZM24.7928 23.7L25.3135 24.3074L25.3168 24.3046L24.7928 23.7ZM26.9628 21.74L27.51 22.3236L27.5111 22.3226L26.9628 21.74ZM29.0628 19.57L29.6674 20.0939L29.6757 20.0843L29.6837 20.0745L29.0628 19.57ZM30.3928 17.12L30.6458 17.8789L30.6458 17.8789L30.3928 17.12ZM31.8628 17.4L32.4774 16.8879L32.4774 16.8879L31.8628 17.4ZM32.4228 18.45L31.6639 18.703L31.6639 18.703L32.4228 18.45ZM32.7028 19.78L31.9068 19.8596L31.9115 19.907L31.9219 19.9535L32.7028 19.78ZM33.1228 26.99L32.3277 27.0783L32.3291 27.0908L32.3309 27.1031L33.1228 26.99ZM33.8928 31.68L34.6876 31.5892L34.6844 31.5607L34.6791 31.5326L33.8928 31.68ZM34.5928 35.88L33.8149 36.0667L33.8167 36.074L34.5928 35.88ZM35.3628 38.75L34.5953 38.9757L34.6035 39.0037L34.6138 39.0309L35.3628 38.75ZM36.0628 40.57L35.32 40.8671L35.32 40.8671L36.0628 40.57ZM35.5428 41.62C35.5428 41.6636 35.5341 41.6967 35.4944 41.7455C35.4437 41.8079 35.3306 41.9061 35.0976 42.0136L35.7681 43.4664C36.5168 43.1208 37.1428 42.529 37.1428 41.62H35.5428ZM35.075 42.0245C34.5213 42.3013 34.249 42.36 34.1728 42.36V43.96C34.6567 43.96 35.2243 43.7387 35.7906 43.4555L35.075 42.0245ZM34.1728 42.36C34.1746 42.36 34.1628 42.36 34.134 42.3557C34.1058 42.3515 34.0672 42.344 34.0168 42.3314C33.915 42.3059 33.7818 42.264 33.6137 42.2009L33.0519 43.6991C33.4365 43.8433 33.832 43.96 34.1728 43.96V42.36ZM33.7297 42.2554C33.4852 42.1157 33.4457 42.023 33.4456 42.0229L31.96 42.6171C32.1466 43.0836 32.5271 43.411 32.9359 43.6446L33.7297 42.2554ZM33.4728 42.1028C32.9633 40.2965 32.5478 38.6338 32.2254 37.114L30.6602 37.446C30.9912 39.0062 31.4157 40.7035 31.9329 42.5372L33.4728 42.1028ZM32.2299 37.1369C31.9508 35.6018 31.695 34.1137 31.4626 32.6726L29.883 32.9274C30.1173 34.3796 30.3748 35.8782 30.6557 37.4231L32.2299 37.1369ZM31.4662 32.6976C31.2797 31.252 31.0932 29.7831 30.9066 28.2908L29.319 28.4892C29.5058 29.9836 29.6926 31.4546 29.8794 32.9024L31.4662 32.6976ZM30.9093 28.3153C30.7682 26.8104 30.5804 25.167 30.346 23.3856L28.7596 23.5944C28.9919 25.3596 29.1774 26.9829 29.3163 28.4647L30.9093 28.3153ZM29.2719 22.7409C28.8052 22.9159 28.2507 23.2407 27.6274 23.6722L28.5382 24.9878C29.1282 24.5793 29.5537 24.3441 29.8337 24.2391L29.2719 22.7409ZM27.6635 23.6487C27.0442 24.0298 26.4255 24.4344 25.8074 24.8622L26.7182 26.1778C27.3135 25.7656 27.9081 25.3769 28.5021 25.0113L27.6635 23.6487ZM25.8435 24.8387C25.2266 25.2183 24.6763 25.577 24.194 25.9146L25.1116 27.2254C25.5626 26.9097 26.0857 26.5683 26.6821 26.2013L25.8435 24.8387ZM24.1617 25.9385C23.9592 26.096 23.8129 26.2008 23.7158 26.2626C23.6663 26.2941 23.6449 26.3045 23.6451 26.3044C23.6457 26.3042 23.6627 26.2961 23.6925 26.287C23.7174 26.2794 23.7866 26.26 23.8828 26.26V27.86C24.0926 27.86 24.2616 27.7824 24.3217 27.7543C24.4095 27.7134 24.496 27.6626 24.5748 27.6124C24.7344 27.5109 24.9264 27.3707 25.144 27.2015L24.1617 25.9385ZM23.8828 26.26C24.0353 26.26 24.1521 26.313 24.2216 26.3594C24.2548 26.3815 24.2776 26.4022 24.291 26.4156C24.3045 26.4291 24.3115 26.4382 24.3128 26.44C24.3144 26.4422 24.3037 26.4278 24.2834 26.3872C24.2637 26.3479 24.2396 26.2929 24.2119 26.2191L22.7137 26.7809C22.7944 26.996 22.8961 27.2177 23.0328 27.4C23.1541 27.5617 23.4315 27.86 23.8828 27.86V26.26ZM24.2389 26.306C24.1947 26.1291 24.1641 25.9897 24.1449 25.8844C24.1242 25.7703 24.1228 25.7273 24.1228 25.73H22.5228C22.5228 25.9827 22.5959 26.3309 22.6867 26.694L24.2389 26.306ZM24.1228 25.73C24.1228 25.7438 24.1217 25.733 24.1294 25.6865C24.1366 25.6434 24.1491 25.5834 24.1689 25.504L22.6167 25.116C22.5672 25.3139 22.5228 25.5334 22.5228 25.73H24.1228ZM24.1356 25.6071C24.2174 25.4027 24.2869 25.2711 24.3385 25.1938L23.0072 24.3062C22.8721 24.5089 22.7549 24.7507 22.65 25.0129L24.1356 25.6071ZM24.3385 25.1938C24.3252 25.2136 24.371 25.1527 24.57 24.9661C24.7441 24.8029 24.9906 24.5841 25.3134 24.3074L24.2722 23.0926C23.9417 23.3759 23.6748 23.6121 23.4757 23.7989C23.3013 23.9623 23.1137 24.1464 23.0072 24.3062L24.3385 25.1938ZM25.3168 24.3046C26.0254 23.6904 26.7565 23.03 27.51 22.3236L26.4157 21.1564C25.6758 21.85 24.9602 22.4963 24.2689 23.0954L25.3168 24.3046ZM27.5111 22.3226C28.3208 21.5605 29.0402 20.8176 29.6674 20.0939L28.4583 19.0461C27.8721 19.7224 27.1915 20.4262 26.4145 21.1574L27.5111 22.3226ZM29.6837 20.0745C30.007 19.6765 30.2699 19.2978 30.4551 18.9416C30.6358 18.5941 30.7728 18.2111 30.7728 17.82H29.1728C29.1728 17.8489 29.1582 17.9676 29.0355 18.2034C28.9174 18.4306 28.7253 18.7168 28.4419 19.0655L29.6837 20.0745ZM30.7728 17.82C30.7728 17.7265 30.7912 17.731 30.7638 17.7766C30.7492 17.801 30.7275 17.8265 30.7002 17.8477C30.6737 17.8683 30.6525 17.8767 30.6458 17.8789L30.1398 16.3611C29.8352 16.4626 29.5687 16.6586 29.3918 16.9534C29.2244 17.2324 29.1728 17.5401 29.1728 17.82H30.7728ZM30.6458 17.8789C30.7754 17.8357 30.8709 17.8076 30.9368 17.7911C30.9696 17.7829 30.9887 17.7792 30.9968 17.7779C31.0083 17.776 30.99 17.78 30.9528 17.78V16.18C30.8028 16.18 30.6534 16.2127 30.5488 16.2389C30.4281 16.2691 30.2902 16.3109 30.1398 16.3611L30.6458 17.8789ZM30.9528 17.78C31.0954 17.78 31.1711 17.8196 31.2482 17.9121L32.4774 16.8879C32.0878 16.4204 31.5569 16.18 30.9528 16.18V17.78ZM31.2482 17.9121C31.4056 18.101 31.5488 18.3579 31.6639 18.703L33.1818 18.197C33.0168 17.7021 32.7867 17.259 32.4774 16.8879L31.2482 17.9121ZM31.6639 18.703C31.784 19.0635 31.8657 19.4484 31.9068 19.8596L33.4988 19.7004C33.4466 19.1782 33.3416 18.6765 33.1818 18.197L31.6639 18.703ZM31.9219 19.9535C32.0085 20.3435 32.0428 20.6306 32.0428 20.83H33.6428C33.6428 20.4694 33.5838 20.0565 33.4838 19.6065L31.9219 19.9535ZM32.0428 20.83C32.0428 23.2747 32.1367 25.3594 32.3277 27.0783L33.9179 26.9017C33.7356 25.2606 33.6428 23.2387 33.6428 20.83H32.0428ZM32.3309 27.1031C32.5657 28.747 32.8242 30.3218 33.1065 31.8274L34.6791 31.5326C34.4014 30.0515 34.1466 28.4997 33.9148 26.8769L32.3309 27.1031ZM33.098 31.7708C33.2871 33.4255 33.5251 34.8593 33.8149 36.0667L35.3707 35.6933C35.1005 34.5673 34.8719 33.2011 34.6876 31.5892L33.098 31.7708ZM33.8167 36.074C34.0984 37.2008 34.358 38.1687 34.5953 38.9757L36.1303 38.5243C35.901 37.7446 35.6472 36.7991 35.3689 35.686L33.8167 36.074ZM34.6138 39.0309C34.8948 39.7803 35.1303 40.3929 35.32 40.8671L36.8056 40.2729C36.6219 39.8138 36.3909 39.2131 36.1119 38.4691L34.6138 39.0309ZM35.32 40.8671C35.5024 41.3231 35.5428 41.5508 35.5428 41.62H37.1428C37.1428 41.2225 36.9965 40.7502 36.8056 40.2729L35.32 40.8671Z" fill="black"/>
</svg>
