<svg width="115" height="90" viewBox="0 0 115 90" fill="none" xmlns="http://www.w3.org/2000/svg">
<path d="M71.7883 56.3541L42.3375 72.0664C33.9286 76.5526 23.7938 70.3552 23.9554 60.8258L24.505 28.4119C24.6666 18.8824 35.0056 13.0323 43.2576 17.801L72.1588 34.5027C80.6502 39.4098 80.4411 51.7377 71.7883 56.3541Z" fill="white" stroke="black"/>
<path d="M90.7883 56.3541L61.3375 72.0664C52.9286 76.5526 42.7938 70.3552 42.9554 60.8258L43.505 28.4119C43.6666 18.8824 54.0056 13.0323 62.2576 17.801L91.1588 34.5027C99.6502 39.4098 99.4411 51.7377 90.7883 56.3541Z" fill="white" stroke="black"/>
<path d="M90.3428 41.62C90.3428 42.0867 90.0395 42.46 89.4328 42.74C88.8728 43.02 88.4528 43.16 88.1728 43.16C87.9861 43.16 87.7061 43.09 87.3328 42.95C87.0061 42.7633 86.7961 42.5533 86.7028 42.32C86.1895 40.5 85.7695 38.82 85.4428 37.28C85.1628 35.74 84.9061 34.2467 84.6728 32.8C84.4861 31.3533 84.2995 29.8833 84.1128 28.39C83.9728 26.8967 83.7861 25.2633 83.5528 23.49C83.1795 23.63 82.6895 23.91 82.0828 24.33C81.4761 24.7033 80.8695 25.1 80.2628 25.52C79.6561 25.8933 79.1195 26.2433 78.6528 26.57C78.2328 26.8967 77.9761 27.06 77.8828 27.06C77.7428 27.06 77.6028 26.8733 77.4628 26.5C77.3695 26.1267 77.3228 25.87 77.3228 25.73C77.3228 25.6367 77.3461 25.4967 77.3928 25.31C77.4861 25.0767 77.5795 24.89 77.6728 24.75C77.7661 24.61 78.1395 24.26 78.7928 23.7C79.4928 23.0933 80.2161 22.44 80.9628 21.74C81.7561 20.9933 82.4561 20.27 83.0628 19.57C83.6695 18.8233 83.9728 18.24 83.9728 17.82C83.9728 17.4467 84.1128 17.2133 84.3928 17.12C84.6728 17.0267 84.8595 16.98 84.9528 16.98C85.3261 16.98 85.6295 17.12 85.8628 17.4C86.0961 17.68 86.2828 18.03 86.4228 18.45C86.5628 18.87 86.6561 19.3133 86.7028 19.78C86.7961 20.2 86.8428 20.55 86.8428 20.83C86.8428 23.2567 86.9361 25.31 87.1228 26.99C87.3561 28.6233 87.6128 30.1867 87.8928 31.68C88.0795 33.3133 88.3128 34.7133 88.5928 35.88C88.8728 37 89.1295 37.9567 89.3628 38.75C89.6428 39.4967 89.8761 40.1033 90.0628 40.57C90.2495 41.0367 90.3428 41.3867 90.3428 41.62Z" fill="white"/>
<path d="M89.4328 42.74L89.0976 42.0136L89.0862 42.0189L89.075 42.0245L89.4328 42.74ZM87.3328 42.95L86.9359 43.6446L86.9917 43.6765L87.0519 43.6991L87.3328 42.95ZM86.7028 42.32L85.9329 42.5372L85.9443 42.5779L85.96 42.6171L86.7028 42.32ZM85.4428 37.28L84.6557 37.4231L84.6578 37.4346L84.6602 37.446L85.4428 37.28ZM84.6728 32.8L83.8794 32.9024L83.881 32.9149L83.883 32.9274L84.6728 32.8ZM84.1128 28.39L83.3163 28.4647L83.3175 28.477L83.319 28.4892L84.1128 28.39ZM83.5528 23.49L84.346 23.3856L84.2146 22.3874L83.2719 22.7409L83.5528 23.49ZM82.0828 24.33L82.5021 25.0113L82.5205 25L82.5382 24.9878L82.0828 24.33ZM80.2628 25.52L80.6821 26.2013L80.7005 26.19L80.7182 26.1778L80.2628 25.52ZM78.6528 26.57L78.194 25.9146L78.1776 25.9262L78.1617 25.9385L78.6528 26.57ZM77.4628 26.5L76.6867 26.694L76.6978 26.7382L76.7137 26.7809L77.4628 26.5ZM77.3928 25.31L76.65 25.0129L76.6299 25.0633L76.6167 25.116L77.3928 25.31ZM77.6728 24.75L78.3385 25.1938L78.3385 25.1938L77.6728 24.75ZM78.7928 23.7L79.3135 24.3074L79.3168 24.3046L78.7928 23.7ZM80.9628 21.74L81.51 22.3236L81.5111 22.3226L80.9628 21.74ZM83.0628 19.57L83.6674 20.0939L83.6757 20.0843L83.6837 20.0745L83.0628 19.57ZM84.3928 17.12L84.6458 17.8789L84.6458 17.8789L84.3928 17.12ZM85.8628 17.4L86.4774 16.8879L86.4774 16.8879L85.8628 17.4ZM86.4228 18.45L85.6639 18.703L85.6639 18.703L86.4228 18.45ZM86.7028 19.78L85.9068 19.8596L85.9115 19.907L85.9219 19.9535L86.7028 19.78ZM87.1228 26.99L86.3277 27.0783L86.3291 27.0908L86.3309 27.1031L87.1228 26.99ZM87.8928 31.68L88.6876 31.5892L88.6844 31.5607L88.6791 31.5326L87.8928 31.68ZM88.5928 35.88L87.8149 36.0667L87.8167 36.074L88.5928 35.88ZM89.3628 38.75L88.5953 38.9757L88.6035 39.0037L88.6138 39.0309L89.3628 38.75ZM90.0628 40.57L89.32 40.8671L89.32 40.8671L90.0628 40.57ZM89.5428 41.62C89.5428 41.6636 89.5341 41.6967 89.4944 41.7455C89.4437 41.8079 89.3306 41.9061 89.0976 42.0136L89.7681 43.4664C90.5168 43.1208 91.1428 42.529 91.1428 41.62H89.5428ZM89.075 42.0245C88.5213 42.3013 88.249 42.36 88.1728 42.36V43.96C88.6567 43.96 89.2243 43.7387 89.7906 43.4555L89.075 42.0245ZM88.1728 42.36C88.1746 42.36 88.1628 42.36 88.134 42.3557C88.1058 42.3515 88.0672 42.344 88.0168 42.3314C87.915 42.3059 87.7818 42.264 87.6137 42.2009L87.0519 43.6991C87.4365 43.8433 87.832 43.96 88.1728 43.96V42.36ZM87.7297 42.2554C87.4852 42.1157 87.4457 42.023 87.4456 42.0229L85.96 42.6171C86.1466 43.0836 86.5271 43.411 86.9359 43.6446L87.7297 42.2554ZM87.4728 42.1028C86.9633 40.2965 86.5478 38.6338 86.2254 37.114L84.6602 37.446C84.9912 39.0062 85.4157 40.7035 85.9329 42.5372L87.4728 42.1028ZM86.2299 37.1369C85.9508 35.6018 85.695 34.1137 85.4626 32.6726L83.883 32.9274C84.1173 34.3796 84.3748 35.8782 84.6557 37.4231L86.2299 37.1369ZM85.4662 32.6976C85.2797 31.252 85.0932 29.7831 84.9066 28.2908L83.319 28.4892C83.5058 29.9836 83.6926 31.4546 83.8794 32.9024L85.4662 32.6976ZM84.9093 28.3153C84.7682 26.8104 84.5804 25.167 84.346 23.3856L82.7596 23.5944C82.9919 25.3596 83.1774 26.9829 83.3163 28.4647L84.9093 28.3153ZM83.2719 22.7409C82.8052 22.9159 82.2507 23.2407 81.6274 23.6722L82.5382 24.9878C83.1282 24.5793 83.5537 24.3441 83.8337 24.2391L83.2719 22.7409ZM81.6635 23.6487C81.0442 24.0298 80.4255 24.4344 79.8074 24.8622L80.7182 26.1778C81.3135 25.7656 81.9081 25.3769 82.5021 25.0113L81.6635 23.6487ZM79.8435 24.8387C79.2266 25.2183 78.6763 25.577 78.194 25.9146L79.1116 27.2254C79.5626 26.9097 80.0857 26.5683 80.6821 26.2013L79.8435 24.8387ZM78.1617 25.9385C77.9592 26.096 77.8129 26.2008 77.7158 26.2626C77.6663 26.2941 77.6449 26.3045 77.6451 26.3044C77.6457 26.3042 77.6627 26.2961 77.6925 26.287C77.7174 26.2794 77.7866 26.26 77.8828 26.26V27.86C78.0926 27.86 78.2616 27.7824 78.3217 27.7543C78.4095 27.7134 78.496 27.6626 78.5748 27.6124C78.7344 27.5109 78.9264 27.3707 79.144 27.2015L78.1617 25.9385ZM77.8828 26.26C78.0353 26.26 78.1521 26.313 78.2216 26.3594C78.2548 26.3815 78.2776 26.4022 78.291 26.4156C78.3045 26.4291 78.3115 26.4382 78.3128 26.44C78.3144 26.4422 78.3037 26.4278 78.2834 26.3872C78.2637 26.3479 78.2396 26.2929 78.2119 26.2191L76.7137 26.7809C76.7944 26.996 76.8961 27.2177 77.0328 27.4C77.1541 27.5617 77.4315 27.86 77.8828 27.86V26.26ZM78.2389 26.306C78.1947 26.1291 78.1641 25.9897 78.1449 25.8844C78.1242 25.7703 78.1228 25.7273 78.1228 25.73H76.5228C76.5228 25.9827 76.5959 26.3309 76.6867 26.694L78.2389 26.306ZM78.1228 25.73C78.1228 25.7438 78.1217 25.733 78.1294 25.6865C78.1366 25.6434 78.1491 25.5834 78.1689 25.504L76.6167 25.116C76.5672 25.3139 76.5228 25.5334 76.5228 25.73H78.1228ZM78.1356 25.6071C78.2174 25.4027 78.2869 25.2711 78.3385 25.1938L77.0072 24.3062C76.8721 24.5089 76.7549 24.7507 76.65 25.0129L78.1356 25.6071ZM78.3385 25.1938C78.3252 25.2136 78.371 25.1527 78.57 24.9661C78.7441 24.8029 78.9906 24.5841 79.3134 24.3074L78.2722 23.0926C77.9417 23.3759 77.6748 23.6121 77.4757 23.7989C77.3013 23.9623 77.1137 24.1464 77.0072 24.3062L78.3385 25.1938ZM79.3168 24.3046C80.0254 23.6904 80.7565 23.03 81.51 22.3236L80.4157 21.1564C79.6758 21.85 78.9602 22.4963 78.2689 23.0954L79.3168 24.3046ZM81.5111 22.3226C82.3208 21.5605 83.0402 20.8176 83.6674 20.0939L82.4583 19.0461C81.8721 19.7224 81.1915 20.4262 80.4145 21.1574L81.5111 22.3226ZM83.6837 20.0745C84.007 19.6765 84.2699 19.2978 84.4551 18.9416C84.6358 18.5941 84.7728 18.2111 84.7728 17.82H83.1728C83.1728 17.8489 83.1582 17.9676 83.0355 18.2034C82.9174 18.4306 82.7253 18.7168 82.4419 19.0655L83.6837 20.0745ZM84.7728 17.82C84.7728 17.7265 84.7912 17.731 84.7638 17.7766C84.7492 17.801 84.7275 17.8265 84.7002 17.8477C84.6737 17.8683 84.6525 17.8767 84.6458 17.8789L84.1398 16.3611C83.8352 16.4626 83.5687 16.6586 83.3918 16.9534C83.2244 17.2324 83.1728 17.5401 83.1728 17.82H84.7728ZM84.6458 17.8789C84.7754 17.8357 84.8709 17.8076 84.9368 17.7911C84.9696 17.7829 84.9887 17.7792 84.9968 17.7779C85.0083 17.776 84.99 17.78 84.9528 17.78V16.18C84.8028 16.18 84.6534 16.2127 84.5488 16.2389C84.4281 16.2691 84.2902 16.3109 84.1398 16.3611L84.6458 17.8789ZM84.9528 17.78C85.0954 17.78 85.1711 17.8196 85.2482 17.9121L86.4774 16.8879C86.0878 16.4204 85.5569 16.18 84.9528 16.18V17.78ZM85.2482 17.9121C85.4056 18.101 85.5488 18.3579 85.6639 18.703L87.1818 18.197C87.0168 17.7021 86.7867 17.259 86.4774 16.8879L85.2482 17.9121ZM85.6639 18.703C85.784 19.0635 85.8657 19.4484 85.9068 19.8596L87.4988 19.7004C87.4466 19.1782 87.3416 18.6765 87.1818 18.197L85.6639 18.703ZM85.9219 19.9535C86.0085 20.3435 86.0428 20.6306 86.0428 20.83H87.6428C87.6428 20.4694 87.5838 20.0565 87.4838 19.6065L85.9219 19.9535ZM86.0428 20.83C86.0428 23.2747 86.1367 25.3594 86.3277 27.0783L87.9179 26.9017C87.7356 25.2606 87.6428 23.2387 87.6428 20.83H86.0428ZM86.3309 27.1031C86.5657 28.747 86.8242 30.3218 87.1065 31.8274L88.6791 31.5326C88.4014 30.0515 88.1466 28.4997 87.9148 26.8769L86.3309 27.1031ZM87.098 31.7708C87.2871 33.4255 87.5251 34.8593 87.8149 36.0667L89.3707 35.6933C89.1005 34.5673 88.8719 33.2011 88.6876 31.5892L87.098 31.7708ZM87.8167 36.074C88.0984 37.2008 88.358 38.1687 88.5953 38.9757L90.1303 38.5243C89.901 37.7446 89.6472 36.7991 89.3689 35.686L87.8167 36.074ZM88.6138 39.0309C88.8948 39.7803 89.1303 40.3929 89.32 40.8671L90.8056 40.2729C90.6219 39.8138 90.3909 39.2131 90.1119 38.4691L88.6138 39.0309ZM89.32 40.8671C89.5024 41.3231 89.5428 41.5508 89.5428 41.62H91.1428C91.1428 41.2225 90.9965 40.7502 90.8056 40.2729L89.32 40.8671Z" fill="black"/>
</svg>
