<svg width="115" height="90" viewBox="0 0 115 90" fill="none" xmlns="http://www.w3.org/2000/svg">
<path d="M72.1588 34.5027C80.6502 39.4098 80.4411 51.7377 71.7883 56.3541L42.3375 72.0664C33.9286 76.5526 23.7938 70.3552 23.9554 60.8258L24.505 28.4119C24.6666 18.8824 35.0056 13.0323 43.2576 17.801L72.1588 34.5027Z" fill="white" stroke="black"/>
<path d="M91.1588 34.5027C99.6502 39.4098 99.4411 51.7377 90.7883 56.3541L61.3375 72.0664C52.9286 76.5526 42.7938 70.3552 42.9554 60.8258L43.505 28.4119C43.6666 18.8824 54.0056 13.0323 62.2576 17.801L91.1588 34.5027Z" fill="white" stroke="black"/>
<path d="M90.3428 41.62C90.3428 42.0867 90.0395 42.46 89.4328 42.74C88.8728 43.02 88.4528 43.16 88.1728 43.16C87.9861 43.16 87.7061 43.09 87.3328 42.95C87.0061 42.7633 86.7961 42.5533 86.7028 42.32C86.1895 40.5 85.7695 38.82 85.4428 37.28C85.1628 35.74 84.9061 34.2467 84.6728 32.8C84.4861 31.3533 84.2995 29.8833 84.1128 28.39C83.9728 26.8967 83.7861 25.2633 83.5528 23.49C83.1795 23.63 82.6895 23.91 82.0828 24.33C81.4761 24.7033 80.8695 25.1 80.2628 25.52C79.6561 25.8933 79.1195 26.2433 78.6528 26.57C78.2328 26.8967 77.9761 27.06 77.8828 27.06C77.7428 27.06 77.6028 26.8733 77.4628 26.5C77.3695 26.1267 77.3228 25.87 77.3228 25.73C77.3228 25.6367 77.3461 25.4967 77.3928 25.31C77.4861 25.0767 77.5795 24.89 77.6728 24.75C77.7661 24.61 78.1395 24.26 78.7928 23.7C79.4928 23.0933 80.2161 22.44 80.9628 21.74C81.7561 20.9933 82.4561 20.27 83.0628 19.57C83.6695 18.8233 83.9728 18.24 83.9728 17.82C83.9728 17.4467 84.1128 17.2133 84.3928 17.12C84.6728 17.0267 84.8595 16.98 84.9528 16.98C85.3261 16.98 85.6295 17.12 85.8628 17.4C86.0961 17.68 86.2828 18.03 86.4228 18.45C86.5628 18.87 86.6561 19.3133 86.7028 19.78C86.7961 20.2 86.8428 20.55 86.8428 20.83C86.8428 23.2567 86.9361 25.31 87.1228 26.99C87.3561 28.6233 87.6128 30.1867 87.8928 31.68C88.0795 33.3133 88.3128 34.7133 88.5928 35.88C88.8728 37 89.1295 37.9567 89.3628 38.75C89.6428 39.4967 89.8761 40.1033 90.0628 40.57C90.2495 41.0367 90.3428 41.3867 90.3428 41.62Z" fill="white"/>
<path d="M89.4328 42.74L89.0138 41.832L88.9996 41.8386L88.9856 41.8456L89.4328 42.74ZM87.3328 42.95L86.8367 43.8182L86.9064 43.8581L86.9817 43.8863L87.3328 42.95ZM86.7028 42.32L85.7404 42.5915L85.7547 42.6423L85.7743 42.6914L86.7028 42.32ZM85.4428 37.28L84.4589 37.4589L84.4616 37.4732L84.4646 37.4875L85.4428 37.28ZM84.6728 32.8L83.681 32.928L83.6831 32.9436L83.6856 32.9592L84.6728 32.8ZM84.1128 28.39L83.1172 28.4833L83.1186 28.4987L83.1205 28.514L84.1128 28.39ZM83.5528 23.49L84.5443 23.3595L84.3801 22.1118L83.2017 22.5537L83.5528 23.49ZM82.0828 24.33L82.6069 25.1817L82.6299 25.1675L82.652 25.1522L82.0828 24.33ZM80.2628 25.52L80.7869 26.3717L80.8099 26.3575L80.832 26.3422L80.2628 25.52ZM78.6528 26.57L78.0794 25.7508L78.0587 25.7652L78.0389 25.7806L78.6528 26.57ZM77.4628 26.5L76.4927 26.7425L76.5065 26.7978L76.5265 26.8511L77.4628 26.5ZM77.3928 25.31L76.4643 24.9386L76.4391 25.0016L76.4227 25.0675L77.3928 25.31ZM77.6728 24.75L78.5049 25.3047L78.5049 25.3047L77.6728 24.75ZM78.7928 23.7L79.4436 24.4593L79.4477 24.4557L78.7928 23.7ZM80.9628 21.74L81.6468 22.4695L81.6482 22.4682L80.9628 21.74ZM83.0628 19.57L83.8185 20.2249L83.8289 20.2129L83.8389 20.2006L83.0628 19.57ZM84.3928 17.12L84.709 18.0687L84.709 18.0687L84.3928 17.12ZM85.8628 17.4L86.631 16.7598L86.631 16.7598L85.8628 17.4ZM86.4228 18.45L85.4741 18.7662L85.4741 18.7662L86.4228 18.45ZM86.7028 19.78L85.7078 19.8795L85.7137 19.9388L85.7266 19.9969L86.7028 19.78ZM87.1228 26.99L86.1289 27.1004L86.1307 27.116L86.1329 27.1314L87.1228 26.99ZM87.8928 31.68L88.8863 31.5665L88.8823 31.5309L88.8757 31.4957L87.8928 31.68ZM88.5928 35.88L87.6204 36.1134L87.6227 36.1225L88.5928 35.88ZM89.3628 38.75L88.4034 39.0322L88.4137 39.0671L88.4265 39.1011L89.3628 38.75ZM90.0628 40.57L89.1343 40.9414L89.1343 40.9414L90.0628 40.57ZM89.3428 41.62C89.3428 41.6261 89.3422 41.6216 89.3454 41.6129C89.3484 41.6045 89.3498 41.6064 89.3392 41.6194C89.3138 41.6507 89.2292 41.7326 89.0138 41.832L89.8519 43.648C90.6361 43.286 91.3428 42.6396 91.3428 41.62H89.3428ZM88.9856 41.8456C88.7321 41.9723 88.5326 42.056 88.3816 42.1063C88.2215 42.1597 88.1616 42.16 88.1728 42.16V44.16C88.7076 44.16 89.3122 43.9183 89.88 43.6344L88.9856 41.8456ZM88.1728 42.16C88.1929 42.16 88.1641 42.1621 88.0653 42.1374C87.973 42.1143 87.8474 42.075 87.6839 42.0137L86.9817 43.8863C87.3691 44.0316 87.7935 44.16 88.1728 44.16V42.16ZM87.829 42.0818C87.7233 42.0214 87.6655 41.9734 87.6374 41.9454C87.611 41.919 87.6194 41.9188 87.6313 41.9486L85.7743 42.6914C85.9843 43.2162 86.4073 43.5729 86.8367 43.8182L87.829 42.0818ZM87.6653 42.0485C87.1568 40.2456 86.7424 38.5873 86.421 37.0725L84.4646 37.4875C84.7966 39.0527 85.2222 40.7544 85.7404 42.5915L87.6653 42.0485ZM86.4267 37.1011C86.1478 35.5672 85.8923 34.0804 85.6601 32.6408L83.6856 32.9592C83.92 34.4129 84.1778 35.9128 84.4589 37.4589L86.4267 37.1011ZM85.6646 32.672C85.4781 31.2267 85.2916 29.758 85.1051 28.266L83.1205 28.514C83.3074 30.0086 83.4942 31.48 83.681 32.928L85.6646 32.672ZM85.1084 28.2967C84.9671 26.7888 84.7789 25.143 84.5443 23.3595L82.5614 23.6205C82.7934 25.3837 82.9785 27.0045 83.1172 28.4833L85.1084 28.2967ZM83.2017 22.5537C82.7117 22.7374 82.141 23.0734 81.5136 23.5078L82.652 25.1522C83.2379 24.7466 83.6473 24.5226 83.9039 24.4263L83.2017 22.5537ZM81.5587 23.4783C80.9362 23.8614 80.3145 24.2679 79.6936 24.6978L80.832 26.3422C81.4244 25.9321 82.0161 25.5452 82.6069 25.1817L81.5587 23.4783ZM79.7387 24.6683C79.1192 25.0496 78.5655 25.4104 78.0794 25.7508L79.2263 27.3892C79.6734 27.0762 80.1931 26.7371 80.7869 26.3717L79.7387 24.6683ZM78.0389 25.7806C77.8383 25.9366 77.6977 26.037 77.6084 26.0938C77.5626 26.123 77.5493 26.1284 77.5606 26.1232C77.5667 26.1203 77.5928 26.1083 77.6343 26.0957C77.6695 26.0849 77.7596 26.06 77.8828 26.06V28.06C78.1392 28.06 78.3421 27.9655 78.4063 27.9356C78.505 27.8895 78.5997 27.8337 78.6822 27.7812C78.8496 27.6747 79.0473 27.53 79.2668 27.3594L78.0389 25.7806ZM77.8828 26.06C78.0821 26.06 78.2369 26.1292 78.3325 26.1929C78.4205 26.2516 78.4641 26.3084 78.4728 26.32C78.4862 26.3378 78.4558 26.3 78.3991 26.1489L76.5265 26.8511C76.6098 27.0734 76.7194 27.3155 76.8728 27.52C77.0069 27.6988 77.3362 28.06 77.8828 28.06V26.06ZM78.433 26.2575C78.3893 26.083 78.3598 25.9482 78.3417 25.8486C78.3216 25.7381 78.3228 25.7091 78.3228 25.73H76.3228C76.3228 26.0108 76.4025 26.382 76.4927 26.7425L78.433 26.2575ZM78.3228 25.73C78.3228 25.7589 78.3199 25.76 78.3267 25.7194C78.3328 25.683 78.344 25.6284 78.363 25.5525L76.4227 25.0675C76.3725 25.2682 76.3228 25.5075 76.3228 25.73H78.3228ZM78.3213 25.6814C78.4002 25.4841 78.4637 25.3664 78.5049 25.3047L76.8408 24.1953C76.6952 24.4136 76.5721 24.6692 76.4643 24.9386L78.3213 25.6814ZM78.5049 25.3047C78.4782 25.3447 78.4695 25.3477 78.5195 25.2953C78.56 25.2527 78.621 25.1924 78.7068 25.112C78.8778 24.9517 79.1217 24.7351 79.4436 24.4593L78.142 22.9407C77.8105 23.2249 77.5412 23.4633 77.3389 23.653C77.1676 23.8135 76.9623 24.013 76.8408 24.1953L78.5049 25.3047ZM79.4477 24.4557C80.1585 23.8397 80.8916 23.1775 81.6468 22.4695L80.2789 21.0105C79.5407 21.7025 78.8271 22.347 78.1379 22.9443L79.4477 24.4557ZM81.6482 22.4682C82.462 21.7022 83.1862 20.9545 83.8185 20.2249L82.3071 18.9151C81.7261 19.5855 81.0503 20.2844 80.2774 21.0118L81.6482 22.4682ZM83.8389 20.2006C84.1672 19.7965 84.4389 19.4062 84.6325 19.0339C84.8205 18.6724 84.9728 18.2563 84.9728 17.82H82.9728C82.9728 17.8037 82.9735 17.8892 82.8581 18.1111C82.7484 18.3222 82.5651 18.5968 82.2867 18.9394L83.8389 20.2006ZM84.9728 17.82C84.9728 17.7498 84.987 17.7933 84.9353 17.8795C84.9083 17.9246 84.8702 17.9689 84.823 18.0056C84.7768 18.0416 84.7349 18.0601 84.709 18.0687L84.0766 16.1713C83.7308 16.2866 83.4239 16.5112 83.2203 16.8505C83.0286 17.17 82.9728 17.5168 82.9728 17.82H84.9728ZM84.709 18.0687C84.8361 18.0263 84.9262 17.9999 84.9853 17.9851C84.9993 17.9816 85.0101 17.9792 85.018 17.9775C85.0218 17.9767 85.0248 17.9761 85.0268 17.9757C85.0289 17.9753 85.0298 17.9751 85.0297 17.9751C85.0296 17.9752 85.0282 17.9754 85.0256 17.9758C85.023 17.9761 85.0187 17.9766 85.0129 17.9772C85.0024 17.9783 84.9815 17.98 84.9528 17.98V15.98C84.777 15.98 84.6077 16.018 84.5003 16.0449C84.3727 16.0767 84.2295 16.1203 84.0766 16.1713L84.709 18.0687ZM84.9528 17.98C85.0119 17.98 85.0357 17.9904 85.0413 17.993C85.0462 17.9952 85.0642 18.0037 85.0946 18.0402L86.631 16.7598C86.2024 16.2455 85.6146 15.98 84.9528 15.98V17.98ZM85.0946 18.0402C85.233 18.2063 85.3653 18.4398 85.4741 18.7662L87.3715 18.1338C87.2003 17.6202 86.9593 17.1537 86.631 16.7598L85.0946 18.0402ZM85.4741 18.7662C85.5894 19.1119 85.668 19.4822 85.7078 19.8795L87.6979 19.6805C87.6442 19.1444 87.5363 18.6281 87.3715 18.1338L85.4741 18.7662ZM85.7266 19.9969C85.8116 20.3793 85.8428 20.6508 85.8428 20.83H87.8428C87.8428 20.4492 87.7807 20.0207 87.679 19.5631L85.7266 19.9969ZM85.8428 20.83C85.8428 23.2792 85.9369 25.3718 86.1289 27.1004L88.1167 26.8796C87.9354 25.2482 87.8428 23.2342 87.8428 20.83H85.8428ZM86.1329 27.1314C86.3681 28.7779 86.6271 30.3556 86.9099 31.8643L88.8757 31.4957C88.5986 30.0178 88.3442 28.4688 88.1128 26.8486L86.1329 27.1314ZM86.8993 31.7935C87.089 33.4536 87.3282 34.8958 87.6204 36.1134L89.5652 35.6466C89.2974 34.5308 89.07 33.1731 88.8863 31.5665L86.8993 31.7935ZM87.6227 36.1225C87.9048 37.2511 88.1651 38.2217 88.4034 39.0322L90.3222 38.4678C90.0939 37.6916 89.8408 36.7489 89.563 35.6375L87.6227 36.1225ZM88.4265 39.1011C88.7077 39.8511 88.9439 40.4653 89.1343 40.9414L90.9913 40.1986C90.8084 39.7414 90.5779 39.1422 90.2991 38.3989L88.4265 39.1011ZM89.1343 40.9414C89.218 41.1507 89.2733 41.3153 89.3066 41.4402C89.3417 41.5719 89.3428 41.6243 89.3428 41.62H91.3428C91.3428 41.1814 91.1833 40.6786 90.9913 40.1986L89.1343 40.9414Z" fill="black"/>
</svg>
