<svg width="513" height="493" viewBox="0 0 513 493" fill="none" xmlns="http://www.w3.org/2000/svg">
<g clip-path="url(#clip0)">
<path d="M420.886 359.362H411.95V348.987C411.95 348.766 411.865 348.555 411.712 348.4C411.56 348.244 411.353 348.156 411.138 348.156C410.922 348.156 410.716 348.244 410.563 348.4C410.411 348.555 410.326 348.766 410.326 348.987V359.362H401.389C401.174 359.362 400.967 359.45 400.815 359.605C400.663 359.761 400.577 359.972 400.577 360.192C400.577 360.412 400.663 360.623 400.815 360.779C400.967 360.935 401.174 361.022 401.389 361.022H410.326V371.398C410.326 371.618 410.411 371.829 410.563 371.985C410.716 372.14 410.922 372.228 411.138 372.228C411.353 372.228 411.56 372.14 411.712 371.985C411.865 371.829 411.95 371.618 411.95 371.398V361.022H420.886C421.102 361.022 421.308 360.935 421.461 360.779C421.613 360.623 421.699 360.412 421.699 360.192C421.699 359.972 421.613 359.761 421.461 359.605C421.308 359.45 421.102 359.362 420.886 359.362Z" fill="white"/>
<path d="M492.477 482.905L483.19 482.904L478.774 446.302L492.48 446.303L492.477 482.905Z" fill="#FFB8B8"/>
<path d="M476.556 480.192H494.467V491.715H465.279C465.279 490.202 465.571 488.704 466.137 487.306C466.704 485.908 467.535 484.637 468.582 483.567C469.629 482.497 470.872 481.649 472.241 481.07C473.609 480.49 475.075 480.192 476.556 480.192Z" fill="#2F2E41"/>
<path d="M455.514 482.905L446.227 482.904L441.811 446.302L455.517 446.303L455.514 482.905Z" fill="#FFB8B8"/>
<path d="M439.593 480.192H457.504V491.715H428.316C428.316 490.202 428.608 488.704 429.174 487.306C429.741 485.908 430.572 484.637 431.619 483.567C432.666 482.497 433.909 481.649 435.278 481.07C436.646 480.49 438.112 480.192 439.593 480.192Z" fill="#2F2E41"/>
<path d="M499.632 356.363C498.884 355.52 498.327 354.519 497.999 353.432C497.671 352.344 497.58 351.197 497.733 350.07C497.886 348.943 498.279 347.864 498.885 346.909C499.49 345.953 500.293 345.146 501.237 344.542L498.36 327L508.367 322.614L512.089 347.445C512.976 349.132 513.227 351.094 512.794 352.958C512.36 354.822 511.273 356.458 509.737 357.558C508.202 358.657 506.325 359.143 504.462 358.923C502.6 358.702 500.881 357.792 499.632 356.363Z" fill="#FFB8B8"/>
<path d="M468.853 224.199C479.872 224.199 488.805 215.071 488.805 203.812C488.805 192.553 479.872 183.425 468.853 183.425C457.833 183.425 448.9 192.553 448.9 203.812C448.9 215.071 457.833 224.199 468.853 224.199Z" fill="#FFB8B8"/>
<path d="M480.112 220.909L469.026 221.11C467.871 221.133 466.728 220.879 465.687 220.368C464.646 219.856 463.737 219.102 463.034 218.166C462.331 217.23 461.852 216.138 461.638 214.978C461.424 213.819 461.479 212.624 461.799 211.49C462.036 210.671 462.214 209.835 462.332 208.99C462.457 208.067 462.481 207.134 462.405 206.206C462.335 205.277 461.957 204.4 461.335 203.718C460.713 203.037 459.883 202.592 458.981 202.456C458.078 202.32 457.158 202.502 456.37 202.971C455.582 203.44 454.973 204.168 454.643 205.037C452.779 205.064 448.808 204.443 446.944 204.47C442.986 194.103 451.611 180.537 460.895 175.442C470.361 170.247 482.647 175.532 486.275 186.358C491.31 186.451 495.402 191.525 496.051 197.237C496.7 202.949 494.4 208.914 490.881 213.292C487.363 217.67 482.743 220.861 480.112 220.909Z" fill="#2F2E41"/>
<path d="M443.671 479.487C442.773 479.482 441.908 479.141 441.239 478.527C440.571 477.914 440.147 477.071 440.047 476.159L435.933 334.856L487.752 338.624L487.792 338.965C499.502 439.121 495.499 473.791 495.458 474.129C495.429 474.642 495.297 475.143 495.07 475.601C494.844 476.059 494.527 476.464 494.14 476.792C493.753 477.119 493.304 477.361 492.821 477.503C492.339 477.646 491.833 477.685 491.334 477.618L479.883 477.898C479.015 477.798 478.21 477.383 477.616 476.729C477.021 476.075 476.676 475.225 476.642 474.333L465.942 371.988C465.876 371.722 465.72 371.488 465.502 371.328C465.285 371.168 465.019 371.091 464.751 371.111C464.475 371.11 464.208 371.207 463.995 371.385C463.782 371.564 463.636 371.812 463.582 372.088L459.448 474.768C459.492 475.721 459.176 476.655 458.565 477.377C457.954 478.098 457.094 478.552 456.165 478.645L444.034 479.469C443.914 479.481 443.792 479.488 443.671 479.487Z" fill="#FFCC3E"/>
<path d="M465.173 351.739C464.863 351.739 464.554 351.735 464.243 351.725C449.343 351.266 437.685 339.748 434.467 336.228C434.058 335.78 433.763 335.234 433.61 334.641C433.456 334.047 433.449 333.424 433.589 332.827L442.185 295.671L439.904 263.368C439.546 258.885 440.122 254.375 441.593 250.135C443.064 245.896 445.397 242.023 448.439 238.771C450.974 236.035 454.054 233.888 457.473 232.475C460.891 231.062 464.566 230.416 468.25 230.582C482.755 231.289 494.198 244.536 494.301 260.74C494.462 285.836 493.739 287.56 493.501 288.127C486.262 305.389 490.216 329.62 491.6 336.636C491.724 337.262 491.689 337.91 491.499 338.518C491.309 339.126 490.97 339.675 490.514 340.112C482.552 347.83 474.031 351.739 465.173 351.739Z" fill="#030047"/>
<path d="M502.595 342.294C501.768 342.294 500.966 342.007 500.319 341.48C499.673 340.953 499.221 340.218 499.036 339.394L490.168 299.919L478.282 254.8C477.775 252.887 477.703 250.88 478.073 248.935C478.443 246.989 479.245 245.156 480.417 243.576C481.481 242.095 482.943 240.962 484.625 240.312C486.307 239.662 488.137 239.525 489.894 239.915C493.736 240.808 496.722 244.095 497.689 248.492L507.401 292.674L512.244 337.448C512.349 338.43 512.069 339.414 511.466 340.186C510.863 340.958 509.985 341.455 509.025 341.569L503.014 342.27C502.875 342.286 502.735 342.294 502.595 342.294Z" fill="#030047"/>
<path d="M25.0469 346.551C26.0992 345.814 26.9806 344.85 27.6289 343.728C28.2772 342.605 28.6767 341.351 28.7992 340.053C28.9217 338.755 28.7643 337.446 28.338 336.218C27.9118 334.989 27.227 333.871 26.332 332.942L29.7173 255.732L12.4824 257.709L13.4837 333.23C12.0558 334.87 11.2663 336.988 11.2646 339.183C11.2629 341.378 12.0492 343.497 13.4745 345.139C14.8999 346.781 16.8652 347.831 18.998 348.092C21.1309 348.352 23.2831 347.804 25.0469 346.551Z" fill="#FFB8B8"/>
<path d="M56.4876 477.25L66.297 479.012L75.9919 441.192L63.1393 438.591L56.4876 477.25Z" fill="#FFB8B8"/>
<path d="M83.6133 491.716L52.7847 486.179L54.8787 474.009L73.7962 477.407C75.3604 477.688 76.8551 478.281 78.195 479.152C79.5349 480.023 80.6937 481.155 81.6053 482.484C82.5169 483.813 83.1634 485.312 83.5079 486.896C83.8525 488.48 83.8883 490.118 83.6133 491.716Z" fill="#2F2E41"/>
<path d="M29.5639 482.267H39.5236L44.2614 443.015L29.5623 443.016L29.5639 482.267Z" fill="#FFB8B8"/>
<path d="M58.7316 491.715L27.4303 491.716L27.4297 479.36L46.6374 479.359C49.8448 479.359 52.921 480.66 55.1891 482.978C57.4572 485.295 58.7315 488.438 58.7316 491.715Z" fill="#2F2E41"/>
<path d="M71.9315 471.518C71.7761 471.519 71.6208 471.509 71.4664 471.49L59.7439 470.505C59.2102 470.44 58.6948 470.266 58.229 469.992C57.7633 469.718 57.3569 469.35 57.0345 468.911C56.7122 468.472 56.4806 467.97 56.3539 467.436C56.2272 466.903 56.2079 466.348 56.2974 465.807L67.122 403.818L59.8078 364.412C59.7481 364.092 59.5772 363.805 59.3265 363.603C59.0758 363.402 58.7623 363.3 58.4437 363.316C58.1251 363.332 57.8231 363.465 57.5932 363.691C57.3632 363.917 57.221 364.22 57.1927 364.545L48.0489 469.652C47.9484 470.707 47.4509 471.681 46.6613 472.368C45.8718 473.055 44.8518 473.402 43.8167 473.335L32.7727 472.915C31.8048 472.845 30.8956 472.415 30.2166 471.707C29.5376 470.999 29.1359 470.061 29.0874 469.071L28.345 343.097L85.602 335.784L89.6018 398.901L89.5859 398.968L75.7831 468.423C75.5728 469.305 75.079 470.089 74.3807 470.65C73.6824 471.212 72.82 471.517 71.9315 471.518Z" fill="#030047"/>
<path d="M47.2226 205.699C58.2422 205.699 67.1753 196.572 67.1753 185.313C67.1753 174.053 58.2422 164.926 47.2226 164.926C36.203 164.926 27.2698 174.053 27.2698 185.313C27.2698 196.572 36.203 205.699 47.2226 205.699Z" fill="#FFB8B8"/>
<path d="M66.023 352.304C62.9024 352.323 59.8417 351.428 57.2031 349.726C47.538 343.554 36.5602 346.007 30.8766 348.018C30.3126 348.22 29.7113 348.289 29.1175 348.22C28.5238 348.151 27.9531 347.946 27.448 347.619C26.9486 347.299 26.5267 346.867 26.2137 346.357C25.9008 345.846 25.705 345.27 25.6409 344.671L15.3055 250.356C13.5735 234.554 22.8897 219.697 37.457 215.03C38.0043 214.854 38.5608 214.688 39.1266 214.531C43.6598 213.275 48.4073 213.05 53.035 213.87C57.6628 214.691 62.0582 216.538 65.9122 219.281C69.8378 222.054 73.1209 225.673 75.5303 229.882C77.9397 234.092 79.417 238.79 79.8581 243.645L88.5589 338.592C88.6182 339.207 88.537 339.827 88.3217 340.405C88.1064 340.982 87.7629 341.5 87.3183 341.918C84.2683 344.801 75.4157 352.303 66.023 352.304Z" fill="#5F5FFF"/>
<path d="M34.5507 270.582L11.2328 267.962C10.5694 267.887 9.92944 267.668 9.35661 267.318C8.78378 266.968 8.29152 266.496 7.91334 265.934C7.53516 265.372 7.27995 264.733 7.1651 264.061C7.05025 263.389 7.07846 262.7 7.24781 262.041L13.1831 238.927C13.5755 235.461 15.2972 232.295 17.9706 230.124C20.6439 227.953 24.0508 226.953 27.4442 227.345C30.8376 227.736 33.9406 229.487 36.0729 232.212C38.2051 234.938 39.1925 238.416 38.8186 241.884L39.6997 265.686C39.7248 266.368 39.6057 267.047 39.3508 267.677C39.0958 268.307 38.7109 268.874 38.2223 269.339C37.7336 269.803 37.1527 270.155 36.5191 270.369C35.8855 270.584 35.2142 270.656 34.5507 270.582V270.582Z" fill="#5F5FFF"/>
<path d="M88.4656 343.245C89.4233 342.384 90.1846 341.319 90.6957 340.124C91.2069 338.93 91.4555 337.635 91.4241 336.332C91.3927 335.029 91.082 333.749 90.5139 332.581C89.9458 331.414 89.1342 330.388 88.1361 329.576L82.3902 252.513L65.5022 256.397L75.4155 331.445C74.1915 333.249 73.6574 335.448 73.9146 337.627C74.1718 339.806 75.2023 341.813 76.8109 343.268C78.4195 344.722 80.4945 345.523 82.6425 345.519C84.7905 345.515 86.8624 344.706 88.4656 343.245Z" fill="#FFB8B8"/>
<path d="M59.0275 265.737C58.5387 265.273 58.1537 264.706 57.8987 264.076C57.6438 263.446 57.5249 262.767 57.5503 262.085L58.4314 238.283C58.0575 234.815 59.0449 231.337 61.1772 228.611C63.3094 225.885 66.4124 224.135 69.8058 223.744C73.1992 223.352 76.6061 224.351 79.2794 226.523C81.9528 228.694 83.6745 231.859 84.067 235.325L90.0022 258.439C90.1716 259.099 90.1998 259.788 90.0849 260.46C89.9701 261.132 89.7149 261.77 89.3367 262.332C88.9585 262.894 88.4662 263.366 87.8934 263.716C87.3206 264.066 86.6806 264.286 86.0172 264.361L62.6993 266.98C62.0358 267.055 61.3643 266.983 60.7306 266.768C60.0969 266.554 59.516 266.202 59.0275 265.737Z" fill="#5F5FFF"/>
<path d="M46.0358 206.468C45.6811 206.467 45.3277 206.425 44.9825 206.342L44.8811 206.317C27.3383 203.575 23.4615 193.192 22.6105 188.857C21.7297 184.368 22.7326 180.034 24.999 178.352C23.7634 174.365 23.9617 170.831 25.5898 167.842C28.4294 162.629 34.5918 160.866 35.4182 160.65C40.3397 156.941 46.228 159.417 47.2994 159.919C56.8192 156.321 60.4578 159.316 61.1159 159.985C65.3713 160.766 67.9651 162.445 68.8263 164.978C70.4437 169.735 65.3287 175.652 65.1101 175.902L64.9967 176.031L57.3765 176.402C56.6534 176.437 55.9457 176.628 55.2992 176.96C54.6527 177.293 54.0818 177.761 53.6237 178.334C53.1655 178.906 52.8303 179.571 52.6397 180.284C52.4492 180.998 52.4075 181.745 52.5175 182.476C52.7238 183.419 52.9843 184.349 53.2978 185.261C54.5992 189.416 55.5743 192.966 54.3166 194.316C54.0317 194.577 53.6806 194.751 53.3034 194.818C52.9262 194.885 52.5383 194.842 52.184 194.694C50.9926 194.369 50.1836 194.437 49.7805 194.897C49.1548 195.61 49.3458 197.416 50.3184 199.981C50.6236 200.792 50.7057 201.673 50.556 202.529C50.4062 203.384 50.0302 204.182 49.4688 204.835C49.046 205.344 48.5202 205.754 47.9276 206.036C47.3349 206.318 46.6895 206.465 46.0358 206.468Z" fill="#2F2E41"/>
<path d="M114.545 493H0.812374C0.596919 493 0.390275 492.913 0.237926 492.757C0.0855761 492.601 0 492.39 0 492.17C0 491.95 0.0855761 491.739 0.237926 491.583C0.390275 491.427 0.596919 491.34 0.812374 491.34H114.545C114.76 491.34 114.967 491.427 115.119 491.583C115.271 491.739 115.357 491.95 115.357 492.17C115.357 492.39 115.271 492.601 115.119 492.757C114.967 492.913 114.76 493 114.545 493Z" fill="#CCCCCC"/>
<path d="M510.983 493H397.251C397.035 493 396.829 492.913 396.676 492.757C396.524 492.601 396.438 492.39 396.438 492.17C396.438 491.95 396.524 491.739 396.676 491.583C396.829 491.427 397.035 491.34 397.251 491.34H510.983C511.198 491.34 511.405 491.427 511.557 491.583C511.71 491.739 511.795 491.95 511.795 492.17C511.795 492.39 511.71 492.601 511.557 492.757C511.405 492.913 511.198 493 510.983 493Z" fill="#CCCCCC"/>
<path d="M348.275 351.941H151.68C144.142 351.932 136.915 348.868 131.585 343.422C126.254 337.976 123.256 330.591 123.247 322.889V29.0517C123.256 21.3494 126.254 13.9651 131.585 8.5187C136.915 3.07234 144.142 0.00874153 151.68 0H348.275C355.813 0.00874153 363.04 3.07234 368.371 8.5187C373.701 13.9651 376.699 21.3494 376.708 29.0517V322.889C376.699 330.591 373.701 337.976 368.371 343.422C363.04 348.868 355.813 351.932 348.275 351.941Z" fill="white"/>
<path d="M317.405 233.268H182.551C168.776 233.2 168.718 211.76 182.552 211.687L317.405 211.687C331.171 211.753 331.245 233.195 317.405 233.268Z" fill="#CCCCCC"/>
<path d="M317.405 60.569H182.551C168.776 60.5013 168.718 39.0612 182.552 38.9878L317.405 38.9878C331.171 39.0537 331.245 60.4953 317.405 60.569Z" fill="#CCCCCC"/>
<path d="M317.405 273.111H182.551C168.776 273.043 168.718 251.603 182.552 251.529L317.405 251.529C331.171 251.595 331.245 273.037 317.405 273.111Z" fill="#CCCCCC"/>
<path d="M317.405 312.953H182.551C168.776 312.885 168.718 291.445 182.552 291.372L317.405 291.372C331.171 291.438 331.245 312.879 317.405 312.953Z" fill="#CCCCCC"/>
<path d="M314.967 185.789H184.988C181.434 185.785 178.027 184.341 175.514 181.773C173.001 179.206 171.588 175.725 171.584 172.093V97.7214C171.588 94.0903 173.001 90.6091 175.514 88.0415C178.027 85.474 181.434 84.0297 184.988 84.0256H314.967C318.521 84.0297 321.928 85.474 324.441 88.0415C326.954 90.6091 328.368 94.0903 328.372 97.7214V172.093C328.368 175.725 326.954 179.206 324.441 181.773C321.928 184.341 318.521 185.785 314.967 185.789Z" fill="#5F5FFF"/>
<path d="M348.275 351.941H151.68C144.142 351.932 136.915 348.868 131.585 343.422C126.254 337.976 123.256 330.591 123.247 322.889V29.0517C123.256 21.3494 126.254 13.9651 131.585 8.5187C136.915 3.07234 144.142 0.00874153 151.68 0H348.275C355.813 0.00874153 363.04 3.07234 368.371 8.5187C373.701 13.9651 376.699 21.3494 376.708 29.0517V322.889C376.699 330.591 373.701 337.976 368.371 343.422C363.04 348.868 355.813 351.932 348.275 351.941ZM151.68 4.98029C145.434 4.98751 139.446 7.52592 135.03 12.0386C130.613 16.5513 128.129 22.6698 128.122 29.0517V322.889C128.129 329.271 130.613 335.389 135.03 339.902C139.446 344.415 145.434 346.953 151.68 346.96H348.275C354.521 346.953 360.509 344.415 364.926 339.902C369.342 335.389 371.827 329.271 371.834 322.889V29.0517C371.827 22.6698 369.342 16.5513 364.926 12.0386C360.509 7.52589 354.521 4.98749 348.275 4.98029H151.68Z" fill="#E6E6E6"/>
<path d="M336.69 241.137C337.462 241.952 338.408 242.592 339.461 243.01C340.514 243.427 341.649 243.614 342.785 243.556C343.922 243.498 345.032 243.197 346.038 242.673C347.044 242.15 347.922 241.418 348.609 240.528L365.817 244.864L371.095 235.261L346.704 229.471C345.104 228.445 343.174 228.031 341.278 228.307C339.383 228.582 337.654 229.529 336.419 230.967C335.185 232.405 334.531 234.234 334.581 236.109C334.63 237.983 335.381 239.772 336.69 241.137Z" fill="#FFB8B8"/>
<path d="M350.4 239.985C350.35 239.647 350.348 239.303 350.395 238.963L351.223 232.959C351.357 232 351.872 231.13 352.656 230.537C353.441 229.945 354.43 229.679 355.409 229.798L400.005 235.268L443.997 245.615C448.371 246.645 451.592 249.679 452.403 253.534C452.757 255.297 452.581 257.127 451.896 258.8C451.211 260.474 450.047 261.92 448.544 262.964C446.941 264.114 445.092 264.89 443.139 265.232C441.187 265.575 439.183 265.475 437.282 264.94L392.43 252.409L353.184 242.983C352.468 242.811 351.821 242.435 351.325 241.901C350.829 241.368 350.507 240.701 350.4 239.985Z" fill="#030047"/>
</g>
<defs>
<clipPath id="clip0">
<rect width="513" height="493" fill="white"/>
</clipPath>
</defs>
</svg>
