<svg width="50" height="50" viewBox="0 0 50 50" fill="none" xmlns="http://www.w3.org/2000/svg">
<path d="M25 4.16667C20.8796 4.16667 16.8517 5.38852 13.4256 7.67772C9.99961 9.96691 7.32935 13.2206 5.75252 17.0274C4.1757 20.8342 3.76313 25.0231 4.56699 29.0644C5.37085 33.1057 7.35503 36.8178 10.2686 39.7314C13.1822 42.645 16.8944 44.6292 20.9356 45.433C24.9769 46.2369 29.1658 45.8243 32.9726 44.2475C36.7794 42.6707 40.0331 40.0004 42.3223 36.5744C44.6115 33.1484 45.8333 29.1204 45.8333 25C45.8333 22.2641 45.2945 19.555 44.2475 17.0274C43.2005 14.4998 41.666 12.2032 39.7314 10.2686C37.7968 8.33406 35.5002 6.79948 32.9726 5.75251C30.445 4.70554 27.7359 4.16667 25 4.16667V4.16667ZM25 37.5C24.588 37.5 24.1852 37.3778 23.8426 37.1489C23.5 36.92 23.2329 36.5946 23.0753 36.2139C22.9176 35.8332 22.8763 35.4144 22.9567 35.0102C23.0371 34.6061 23.2355 34.2349 23.5269 33.9435C23.8182 33.6522 24.1894 33.4537 24.5936 33.3734C24.9977 33.293 25.4166 33.3342 25.7973 33.4919C26.178 33.6496 26.5033 33.9166 26.7322 34.2592C26.9612 34.6018 27.0833 35.0046 27.0833 35.4167C27.0833 35.9692 26.8639 36.4991 26.4732 36.8898C26.0825 37.2805 25.5525 37.5 25 37.5ZM27.0833 26.75V29.1667C27.0833 29.7192 26.8639 30.2491 26.4732 30.6398C26.0825 31.0305 25.5525 31.25 25 31.25C24.4475 31.25 23.9176 31.0305 23.5269 30.6398C23.1362 30.2491 22.9167 29.7192 22.9167 29.1667V25C22.9167 24.4475 23.1362 23.9176 23.5269 23.5269C23.9176 23.1362 24.4475 22.9167 25 22.9167C25.6181 22.9167 26.2223 22.7334 26.7362 22.39C27.2501 22.0466 27.6506 21.5586 27.8871 20.9876C28.1237 20.4165 28.1855 19.7882 28.065 19.182C27.9444 18.5758 27.6468 18.019 27.2097 17.582C26.7727 17.1449 26.2159 16.8473 25.6097 16.7267C25.0035 16.6061 24.3751 16.668 23.8041 16.9045C23.2331 17.1411 22.7451 17.5416 22.4017 18.0555C22.0583 18.5694 21.875 19.1736 21.875 19.7917C21.875 20.3442 21.6555 20.8741 21.2648 21.2648C20.8741 21.6555 20.3442 21.875 19.7917 21.875C19.2391 21.875 18.7092 21.6555 18.3185 21.2648C17.9278 20.8741 17.7083 20.3442 17.7083 19.7917C17.7029 18.4381 18.0743 17.1098 18.781 15.9554C19.4877 14.8009 20.5017 13.866 21.7096 13.2552C22.9175 12.6444 24.2716 12.3819 25.6203 12.4971C26.9689 12.6122 28.2589 13.1005 29.3458 13.9072C30.4326 14.7139 31.2735 15.8072 31.7743 17.0647C32.275 18.3222 32.4159 19.6943 32.181 21.0273C31.9462 22.3604 31.345 23.6017 30.4447 24.6124C29.5443 25.6231 28.3805 26.3633 27.0833 26.75V26.75Z" fill="#FF3E6C"/>
</svg>
