<svg width="115" height="90" viewBox="0 0 115 90" fill="none" xmlns="http://www.w3.org/2000/svg">
<path d="M33.5987 55.4875C31.4288 56.1408 30.1838 58.4528 31.1349 60.5099C33.3811 65.3677 36.8608 69.6013 41.2669 72.7842C46.7982 76.7799 53.4926 78.9054 60.3505 78.8432C67.2084 78.781 73.862 76.5345 79.3177 72.4391C84.7734 68.3438 88.7387 62.6192 90.6213 56.1203C92.504 49.6213 92.2031 42.6966 89.7635 36.3801C87.324 30.0635 82.8767 24.694 77.0856 21.0732C71.2946 17.4525 64.4705 15.7748 57.6323 16.2906C52.1737 16.7023 46.9397 18.4942 42.4232 21.4625C40.5346 22.7037 40.3715 25.3193 41.871 27.0104V27.0104C43.3402 28.6674 45.8537 28.8025 47.7509 27.6609C50.9193 25.7541 54.5166 24.6004 58.2558 24.3184C63.3363 23.9352 68.4063 25.1816 72.7088 27.8717C77.0113 30.5617 80.3154 34.5511 82.1279 39.244C83.9404 43.9369 84.164 49.0817 82.7652 53.9101C81.3665 58.7386 78.4205 62.9916 74.3671 66.0343C70.3138 69.077 65.3705 70.7461 60.2753 70.7923C55.1802 70.8385 50.2066 69.2594 46.0971 66.2907C43.0958 64.1226 40.6731 61.2984 39.0047 58.0622C37.978 56.0706 35.744 54.8417 33.5987 55.4875V55.4875Z" fill="#FEFEFE" stroke="black" stroke-linejoin="round"/>
<path d="M50.9849 37.2249L39.3868 40.4241C34.5748 41.7514 30.1328 37.4016 31.3678 32.5716L34.3119 21.0577C35.5469 16.2277 41.5394 14.5135 45.13 17.9633L53.784 26.2779C57.414 29.7656 55.8498 35.883 50.9849 37.2249Z" fill="white" stroke="black"/>
</svg>
