<svg width="247" height="283" viewBox="0 0 247 283" fill="none" xmlns="http://www.w3.org/2000/svg">
<path d="M212.997 107.269L191.882 97.9021L182.515 119.018L203.63 128.385L212.997 107.269Z" fill="#E4E4EF"/>
<path d="M188.5 74.0194L210.2 92.7194C210.2 92.7194 218.6 79.0194 210.2 71.3194C199.7 61.7194 188.5 74.0194 188.5 74.0194Z" fill="#F2F2F9"/>
<path d="M201.2 95.4194C204.569 95.4194 207.3 92.6883 207.3 89.3194C207.3 85.9504 204.569 83.2194 201.2 83.2194C197.831 83.2194 195.1 85.9504 195.1 89.3194C195.1 92.6883 197.831 95.4194 201.2 95.4194Z" fill="#E4E4EF"/>
<path d="M217.6 134.019C217.4 134.019 217.1 133.919 217 133.719L213.6 129.119C213.4 128.819 213.4 128.319 213.8 128.119C214.1 127.919 214.6 127.919 214.8 128.319L218.2 132.919C218.4 133.219 218.4 133.719 218 133.919C217.9 134.019 217.7 134.019 217.6 134.019Z" fill="#E4E4EF"/>
<path d="M146.8 117.519C146.6 117.519 146.4 117.419 146.2 117.319C145.9 117.019 145.9 116.519 146.3 116.219L154.1 109.219C154.4 108.919 154.9 108.919 155.2 109.319C155.5 109.719 155.5 110.119 155.1 110.419L147.3 117.419C147.1 117.419 147 117.519 146.8 117.519Z" fill="#E4E4EF"/>
<path d="M176.8 103.119C176.6 103.119 176.4 103.019 176.2 102.819L173.4 99.4194C173.1 99.1194 173.2 98.6194 173.5 98.3194C173.8 98.0194 174.3 98.1194 174.6 98.4194L177.4 101.819C177.7 102.119 177.6 102.619 177.3 102.919C177.1 103.019 177 103.119 176.8 103.119Z" fill="#E4E4EF"/>
<path d="M214.2 37.5194C214 37.5194 213.9 37.4194 213.7 37.3194C213.4 37.0194 213.3 36.6194 213.6 36.2194L217 32.1194C217.3 31.8194 217.7 31.7194 218.1 32.0194C218.4 32.3194 218.5 32.7194 218.2 33.1194L214.8 37.2194C214.6 37.4194 214.4 37.5194 214.2 37.5194Z" fill="#E4E4EF"/>
<path d="M245.8 74.8194C245.6 74.8194 245.4 74.7194 245.2 74.5194L238.2 66.1194C237.9 65.8194 238 65.3194 238.3 65.0194C238.6 64.7194 239.1 64.8194 239.4 65.1194L246.4 73.5194C246.7 73.8194 246.6 74.3194 246.3 74.6194C246.1 74.7194 246 74.8194 245.8 74.8194Z" fill="#E4E4EF"/>
<path d="M161 3.01938C160.9 3.01938 160.9 3.01938 160.8 3.01938L154.4 1.51938C154 1.41938 153.7 1.01938 153.8 0.61938C153.9 0.21938 154.3 -0.0806184 154.7 0.0193816L161.1 1.51938C161.5 1.61938 161.8 2.01938 161.7 2.41938C161.6 2.71938 161.3 3.01938 161 3.01938Z" fill="#E4E4EF"/>
<path d="M227.5 77.9194H194.7V45.1194H227.5V77.9194ZM196.2 76.4194H226V46.6194H196.2V76.4194Z" fill="#5F5FFF"/>
<path d="M208.2 168.619H159.7V120.119H208.2V168.619ZM161.1 167.119H206.6V121.619H161.1V167.119V167.119Z" fill="#5F5FFF"/>
<path d="M217.6 68.7194C217.4 68.7194 217.2 68.6194 217.1 68.5194L204.1 55.6194C203.8 55.3194 203.8 54.8194 204.1 54.5194C204.4 54.2194 204.9 54.2194 205.2 54.5194L218.1 67.4194C218.4 67.7194 218.4 68.2194 218.1 68.5194C218 68.7194 217.8 68.7194 217.6 68.7194Z" fill="#5F5FFF"/>
<path d="M204.6 68.7194C204.4 68.7194 204.2 68.6194 204.1 68.5194C203.8 68.2194 203.8 67.7194 204.1 67.4194L217 54.5194C217.3 54.2194 217.8 54.2194 218.1 54.5194C218.4 54.8194 218.4 55.3194 218.1 55.6194L205.2 68.5194C205 68.7194 204.8 68.7194 204.6 68.7194Z" fill="#5F5FFF"/>
<path d="M194.3 136.919H174C173.6 136.919 173.2 136.619 173.2 136.119C173.2 135.619 173.5 135.319 174 135.319H194.3C194.7 135.319 195.1 135.619 195.1 136.119C195.1 136.619 194.7 136.919 194.3 136.919Z" fill="#5F5FFF"/>
<path d="M194.3 143.319H174C173.6 143.319 173.2 143.019 173.2 142.519C173.2 142.019 173.5 141.719 174 141.719H194.3C194.7 141.719 195.1 142.019 195.1 142.519C195.1 143.019 194.7 143.319 194.3 143.319Z" fill="#5F5FFF"/>
<path d="M194.3 149.619H190.2C189.8 149.619 189.4 149.319 189.4 148.819C189.4 148.319 189.7 148.019 190.2 148.019H194.3C194.7 148.019 195.1 148.319 195.1 148.819C195.1 149.319 194.7 149.619 194.3 149.619Z" fill="#5F5FFF"/>
<path d="M186.4 149.619H174C173.6 149.619 173.2 149.319 173.2 148.819C173.2 148.319 173.5 148.019 174 148.019H186.4C186.8 148.019 187.2 148.319 187.2 148.819C187.2 149.319 186.8 149.619 186.4 149.619Z" fill="#5F5FFF"/>
<path d="M124.6 249.219L123.9 278.619L174.9 279.119C174.9 279.119 175.2 273.119 165.5 268.619C155.8 264.119 153.8 246.319 153.8 246.319L124.6 249.219Z" fill="#5F5FFF"/>
<path d="M32.8 236.819L21.9 264.119L69.5 282.319C69.5 282.319 71.8 276.819 64.3 269.219C56.8 261.619 61.1 244.219 61.1 244.219L32.8 236.819Z" fill="#5F5FFF"/>
<path d="M85.6 132.119C86.4 148.119 106.9 178.319 110.2 199.919C113.5 221.519 122.1 260.419 122.1 260.419L162.4 252.819C162.4 252.819 157.1 192.419 139.6 155.119C126.8 127.819 108.4 109.719 108.4 109.719L85.6 132.119Z" fill="#030047"/>
<path d="M61 259.319C59.5 260.119 57.9 261.019 56.4 261.819C55.8 262.119 56.3 263.019 56.9 262.719C58.4 261.919 60 261.019 61.5 260.219C62 259.919 61.5 259.019 61 259.319Z" fill="#030047"/>
<path d="M61.7 262.519C60.5 263.519 59.2 264.419 58 265.419C57.5 265.819 58 266.719 58.5 266.319L62.2 263.419C62.7 262.919 62.2 262.119 61.7 262.519Z" fill="#030047"/>
<path d="M159 261.219C158.4 262.519 157.8 263.719 157.1 265.019C156.8 265.619 157.7 266.119 158 265.519L159.9 261.719C160.2 261.219 159.3 260.719 159 261.219Z" fill="#030047"/>
<path d="M161.9 264.619C161.3 265.919 160.7 267.119 160 268.419C159.7 269.019 160.6 269.519 160.9 268.919L162.8 265.119C163 264.619 162.2 264.119 161.9 264.619Z" fill="#030047"/>
<path d="M154.6 251.519C154.2 251.519 153.9 251.219 153.9 250.819C152.3 192.819 117.8 129.719 117.5 129.119C117.3 128.719 117.4 128.319 117.8 128.119C118.2 127.919 118.6 128.019 118.8 128.419C119.1 129.019 153.7 192.419 155.4 250.819C155.3 251.219 155 251.519 154.6 251.519Z" fill="white"/>
<path d="M124.4 142.119C124.3 142.119 124.2 142.119 124.1 142.119C123.7 142.019 123.5 141.519 123.7 141.119C125.6 136.019 123.3 129.019 123.3 128.919C123.2 128.519 123.4 128.119 123.8 127.919C124.2 127.819 124.6 128.019 124.8 128.419C124.9 128.719 127.4 136.019 125.2 141.619C125 141.919 124.7 142.119 124.4 142.119Z" fill="white"/>
<path d="M94.9 169.119C92 199.119 66.3 256.619 66.3 256.619L28.5 240.619C28.5 240.619 39.3 208.819 48.5 189.119C56 173.119 59.7 144.619 65.3 127.219C66.6 123.219 68 119.719 69.5 117.219L74.9 116.419L97 113.219C97.1 113.119 97.8 139.119 94.9 169.119Z" fill="#030047"/>
<path d="M94 158.119C93.7 158.119 93.5 158.019 93.3 157.719L90.8 153.219L83.3 150.519C82.9 150.419 82.7 149.919 82.8 149.519C82.9 149.119 83.4 148.919 83.8 149.019L91.8 151.819L94.5 156.819C94.7 157.219 94.6 157.619 94.2 157.819C94.3 158.119 94.2 158.119 94 158.119Z" fill="white"/>
<path d="M77.1 108.419L75 116.319L69.6 117.119C68.1 119.719 66.7 123.119 65.4 127.119C62.1 125.919 57.9 123.819 53.3 120.019L77.1 108.419Z" fill="#FF3E6C"/>
<path d="M41.3 78.7194C37.3 92.1194 40.4 113.119 51.1 120.719C51.1 120.719 64.6 116.019 67.8 116.719C71.2 110.919 75.1 105.519 78.7 99.8193C74.1 98.0193 70 96.6194 69.1 91.4194C66.5 77.4194 83.1 80.4194 94.1 83.7194C96.8 72.9194 97.8 56.0193 97.8 56.0193C71.1 49.2193 47.7 57.6194 41.3 78.7194Z" fill="#FFCC3E"/>
<path d="M80.6 116.819H53.8C51.1 116.819 48.8 114.619 48.8 111.819V73.7194C48.8 71.0194 51 68.7194 53.8 68.7194H80.6C83.3 68.7194 85.6 70.9194 85.6 73.7194V111.819C85.6 114.519 83.4 116.819 80.6 116.819Z" fill="#5F5FFF"/>
<path d="M56.1 68.7194H53.9C51.2 68.7194 48.9 70.9194 48.9 73.7194V111.819C48.9 114.519 51.1 116.819 53.9 116.819H56.1V68.7194Z" fill="#030047"/>
<path d="M52.5 108.619H48.6C46.8 108.619 45.3 107.119 45.3 105.319V104.719C45.3 102.919 46.8 101.419 48.6 101.419H52.5V108.619Z" fill="#030047"/>
<path d="M5.8 274.019C5.4 274.019 5 273.719 5 273.219V202.319C5 194.919 11 188.919 18.4 188.919H23.6C30.2 188.919 35.5 183.619 35.5 177.019V117.519C35.5 110.119 41.5 104.119 48.9 104.119C49.3 104.119 49.7 104.419 49.7 104.919C49.7 105.419 49.4 105.719 48.9 105.719C42.3 105.719 37 111.019 37 117.619V177.119C37 184.519 31 190.519 23.6 190.519H18.4C11.8 190.519 6.5 195.819 6.5 202.419V273.319C6.5 273.719 6.2 274.019 5.8 274.019Z" fill="#030047"/>
<path d="M11.6 274.919H0V269.119C0 265.919 2.6 263.319 5.8 263.319C9 263.319 11.6 265.919 11.6 269.119V274.919Z" fill="#030047"/>
<path d="M119.3 29.2194C122.4 36.6194 122.6 44.5194 112.9 47.6194C106.3 49.7194 98.4 46.6194 95.3 39.2194C92.2 31.8194 95.1 23.6194 101.7 20.8194C108.3 18.0194 116.2 21.8194 119.3 29.2194Z" fill="#FF3E6C"/>
<path d="M113.8 29.5193C114.352 29.5193 114.8 29.0716 114.8 28.5193C114.8 27.9671 114.352 27.5193 113.8 27.5193C113.248 27.5193 112.8 27.9671 112.8 28.5193C112.8 29.0716 113.248 29.5193 113.8 29.5193Z" fill="#030047"/>
<path d="M114.5 19.1194C114.5 12.5194 103.6 19.9194 101.7 20.8194C95.8 21.9194 90.6 29.7194 92.4 36.6194C93.9 42.5194 100.7 49.5194 104.3 47.8194C110.2 44.3194 111.1 38.5194 108.4 33.0194C109.4 31.8194 108.2 30.0194 108.7 28.6194C109.4 26.4194 114.6 21.5194 114.5 19.1194Z" fill="#5F5FFF"/>
<path d="M106.3 32.5194C95.3 31.5194 96.6 40.3193 100.7 42.3193C104.1 43.9193 109.3 43.3193 111.4 38.3193C113.5 33.3193 106.3 32.5194 106.3 32.5194Z" fill="#FF3E6C"/>
<path d="M107.3 36.3194C105.2 35.2194 102.6 35.7194 101.1 37.6194C100.7 38.1194 101.4 38.8194 101.8 38.3194C103 36.8194 105.1 36.3194 106.8 37.2194C107.4 37.4194 107.9 36.6194 107.3 36.3194Z" fill="#030047"/>
<path d="M120.1 31.6194C119 29.7194 117.6 27.9194 115.9 26.4194C115.4 26.0194 114.7 26.7194 115.2 27.1194C116.8 28.6194 118.1 30.2194 119.2 32.1194C119.6 32.7194 120.4 32.2194 120.1 31.6194Z" fill="#030047"/>
<path d="M105.7 56.2193C90.1 52.8193 83.8 60.2193 78.2 83.0193C72.6 105.819 62.6 119.019 62.6 119.019C62.6 119.019 108 131.819 127.3 129.019C127.3 129.119 138.9 63.4193 105.7 56.2193Z" fill="#FFCC3E"/>
<path d="M93.3 58.8194L94.9 51.0193L116.2 53.4194L113.6 63.0193L93.3 58.8194Z" fill="#FFCC3E"/>
<path d="M78 84.5194C77.9 84.5194 77.9 84.5194 77.8 84.5194C77.4 84.4194 77.2 84.0194 77.3 83.6194L81.8 69.0193C81.9 68.6193 82.3 68.4193 82.7 68.5193C83.1 68.6193 83.3 69.0194 83.2 69.4194L78.7 84.0193C78.7 84.3193 78.4 84.5194 78 84.5194Z" fill="#030047"/>
<path d="M167.7 49.2194C162.4 59.8194 159 63.7193 152.7 65.5193C143.2 68.3193 120.5 55.8194 106.3 58.1194L102.9 87.2194C102.9 87.2194 123.5 100.619 147.3 98.7194C167.9 97.0194 181.6 75.9193 184.1 65.5193C181.6 58.6193 173.3 53.0194 167.7 49.2194Z" fill="#FFCC3E"/>
<path d="M125.1 96.8194C125 96.8194 124.9 96.8194 124.8 96.7194C124.8 96.7194 121.3 95.2194 117.9 95.2194C117.5 95.2194 117.2 94.9193 117.1 94.5193C117.1 94.1193 117.5 93.7194 117.9 93.7194C121.6 93.7194 125.2 95.2194 125.4 95.3194C125.8 95.5194 126 95.9194 125.8 96.3194C125.6 96.6194 125.4 96.8194 125.1 96.8194Z" fill="#030047"/>
<path d="M168.3 48.1194C167.1 39.6194 168.6 32.2194 172.2 29.5194C177.3 25.7194 175.8 34.1194 175.8 34.1194L168.3 48.1194Z" fill="#FF3E6C"/>
<path d="M179.8 24.1194L161.5 42.5194C159.8 44.2194 162.5 46.9194 164.2 45.2194L182.5 26.8194C183.4 25.9194 184.6 23.3194 183.9 22.7194C183.3 21.9194 180.7 23.2194 179.8 24.1194Z" fill="#5F5FFF"/>
<path d="M167.3 49.9194C170.2 44.8194 171.6 36.6194 175 29.3194C177.9 23.1194 180.4 21.2194 181.7 23.8194C182.6 25.5194 180.8 27.4194 179.6 33.1194C179.6 33.1194 183.9 34.0194 184.2 37.0194C184.2 37.0194 188 37.9194 188.3 43.0194C188.4 45.5194 189.2 48.6194 186.3 48.1194C185.7 50.7194 185.2 55.8194 184.7 59.3194C183.8 65.6194 180.8 67.5194 180.8 67.5194L167.3 49.9194Z" fill="#FF3E6C"/>
<path d="M178.9 34.1194L178.2 36.1194C178 36.7194 178.9 37.0194 179.2 36.4194C179.4 35.7194 179.7 35.1194 179.9 34.4194C180.1 33.7194 179.1 33.5194 178.9 34.1194Z" fill="#030047"/>
<path d="M187.5 43.4194C187.4 42.8194 186.4 43.0194 186.5 43.7194C186.6 44.5194 186.5 45.3194 186.2 46.1194C186 46.7194 186.9 47.0194 187.2 46.4194C187.6 45.3194 187.6 44.4194 187.5 43.4194Z" fill="#030047"/>
<path d="M173.4 32.9194C172.2 35.2194 171.4 37.6194 171 40.2194C170.9 40.8194 171.9 41.1194 172 40.5194C172.4 38.0194 173.1 35.7194 174.3 33.4194C174.5 32.8194 173.7 32.3194 173.4 32.9194Z" fill="#030047"/>
<path d="M183.7 37.7194C183.5 38.1194 183.4 38.6194 183.2 39.0194C183 39.6194 183.9 39.9194 184.2 39.3194C184.4 38.9194 184.5 38.4194 184.7 38.0194C184.9 37.4194 183.9 37.1194 183.7 37.7194Z" fill="#030047"/>
</svg>
